<svg width="1200" height="1200" xmlns="http://www.w3.org/2000/svg">

 <title>Logo</title>
 <g>
  <title>Layer 1</title>
  <path id="svg_1" opacity="undefined" fill="#abe1e1"/>
  <ellipse id="svg_2" opacity="0.2" fill="#1d1e1c" ry="20.09" rx="79.63" cy="768.44" cx="428.08" class="b"/>
  <ellipse id="svg_3" opacity="0.2" fill="#1d1e1c" ry="20.09" rx="79.63" cy="764.08" cx="263.32" class="b"/>
  <ellipse id="svg_4" opacity="0.2" fill="#1d1e1c" ry="20.09" rx="79.63" cy="882.57" cx="302.5" class="b"/>
  <ellipse id="svg_5" opacity="0.2" fill="#1d1e1c" ry="20.09" rx="79.63" cy="825.99" cx="151.32" class="b"/>
  <polygon id="svg_6" fill="#1d1e1c" points="341.12 757.99 326.57 757.99 326.57 438.14 467.73 514.14 460.83 526.95 341.12 462.5 341.12 757.99" class="c"/>
  <polygon id="svg_7" fill="#1d1e1c" points="230.55 821.15 216.12 819.32 256.33 501.36 469.78 533.42 467.62 547.8 268.9 517.96 230.55 821.15" class="c"/>
  <polygon id="svg_8" fill="#1d1e1c" points="365.9 865.82 359.01 577.81 462.25 547.85 466.31 561.82 373.82 588.66 380.45 865.47 365.9 865.82" class="c"/>
  <polygon id="svg_9" fill="#1d1e1c" points="481.21 745.01 433.6 602.18 500.87 586.11 504.25 600.26 452.42 612.64 495.01 740.41 481.21 745.01" class="c"/>
  <path id="svg_10" fill="#1d1e1c" d="m482.29,743.44s-14,-24 -35.38,-8.73s-9,36.37 -9,36.37s7,6.54 30.78,7.27s29.4,0 33.86,-5.09s-10.08,-43.26 -10.08,-43.26l-10.18,13.44z" class="c"/>
  <path id="svg_11" fill="#1d1e1c" d="m209.36,796.36s-22.43,-33.4 -52.14,-12.15s-12.51,50.61 -12.51,50.61s9.72,7.18 42.82,7.21c43.07,0.05 42.22,-12.88 45.26,-21.79c5.09,-15 -10.72,-42.56 -10.72,-42.56l-12.71,18.68z" class="c"/>
  <path id="svg_12" fill="#1d1e1c" d="m324.49,743.1s-29.7,-42.13 -59.42,-20.87s-12.51,50.6 -12.51,50.6s9.73,7.18 42.83,7.22c43.07,0 45.13,-8.52 48.16,-17.44c5.09,-15 -13.62,-46.91 -13.62,-46.91l-5.44,27.4z" class="c"/>
  <path id="svg_13" fill="#1d1e1c" d="m364.49,856.51s-26.78,-40.68 -56.5,-19.42s-12.51,50.6 -12.51,50.6s9.73,8.63 42.83,8.67c43.06,0 43.64,-13.83 43.79,-23.25c0.74,-46 -15.07,-42.55 -15.07,-42.55l-2.54,25.95z" class="c"/>
  <polygon id="svg_14" fill="#1d1e1c" points="857.49 759.92 872.04 759.92 872.04 440.07 730.89 516.08 737.78 528.89 857.49 464.43 857.49 759.92" class="c"/>
  <polygon id="svg_15" fill="#1d1e1c" points="968.06 823.08 982.5 821.26 942.28 503.3 728.84 535.35 731 549.74 929.72 519.89 968.06 823.08" class="c"/>
  <polygon id="svg_16" fill="#1d1e1c" points="832.71 867.75 839.6 579.74 736.36 549.78 732.31 563.75 824.79 590.59 818.16 867.4 832.71 867.75" class="c"/>
  <polygon id="svg_17" fill="#1d1e1c" points="717.41 746.94 765.02 604.11 697.74 588.04 694.36 602.19 746.19 614.58 703.6 742.34 717.41 746.94" class="c"/>
  <path id="svg_18" fill="#1d1e1c" d="m716.32,745.37s14,-24 35.39,-8.73s9,36.37 9,36.37s-7,6.55 -30.78,7.28s-29.4,0 -33.87,-5.1s10.08,-43.19 10.08,-43.19l10.18,13.37z" class="c"/>
  <path id="svg_19" fill="#1d1e1c" d="m989.25,798.29s22.43,-33.4 52.15,-12.14s12.51,50.6 12.51,50.6s-9.73,7.18 -42.83,7.22c-43.07,0 -42.22,-12.88 -45.25,-21.8c-5.09,-15 10.71,-42.55 10.71,-42.55l12.71,18.67z" class="c"/>
  <path id="svg_20" fill="#1d1e1c" d="m874.13,745s29.69,-42.13 59.41,-20.88s12.51,50.61 12.51,50.61s-9.73,7.17 -42.83,7.21c-43.06,0 -45.12,-8.51 -48.16,-17.43c-5.09,-15 13.63,-46.92 13.63,-46.92l5.44,27.41z" class="c"/>
  <path id="svg_21" fill="#1d1e1c" d="m834.12,858.44s26.79,-40.67 56.5,-19.42s12.51,50.61 12.51,50.61s-9.72,8.63 -42.82,8.67c-43.07,0 -43.65,-13.84 -43.8,-23.26c-0.73,-46 15.08,-42.55 15.08,-42.55l2.53,25.95z" class="c"/>
  <path id="svg_22" fill="#000000" d="m761.6,493.81c0,87.82 -70,134.27 -156.39,134.27s-152,-46.45 -152,-134.27s65.65,-118.26 152,-118.26s156.39,30.45 156.39,118.26z" class="d"/>
  <path id="svg_23" fill="#1d1e1c" d="m603.3,635.36c-45.68,0 -84.78,-12.41 -113,-35.89c-30.3,-25.12 -46.3,-61.65 -46.3,-105.66c0,-82.13 55.08,-125.54 159.3,-125.54c105.54,0 163.7,44.59 163.7,125.54c0,43.84 -16.79,80.4 -48.54,105.75c-28.95,23.08 -69.84,35.8 -115.16,35.8zm0,-252.54c-96,0 -144.75,37.34 -144.75,111c0,78.34 55.46,127 144.75,127c90.59,0 149.12,-49.85 149.12,-127c0,-91.74 -81.09,-111 -149.12,-111z" class="c"/>
  <ellipse id="svg_24" fill="#fff" ry="100.8" rx="97.47" cy="400.56" cx="546.29" class="e"/>
  <path id="svg_25" fill="#1d1e1c" d="m544.38,506.45c-56.55,0 -102.56,-47.5 -102.56,-105.89s46,-105.89 102.56,-105.89s102.62,47.5 102.62,105.89s-46.06,105.89 -102.62,105.89zm0,-201.59c-50.94,0 -92.38,42.93 -92.38,95.7s41.44,95.71 92.38,95.71s92.38,-42.93 92.38,-95.71s-41.44,-95.7 -92.38,-95.7z" class="c"/>
  <ellipse id="svg_26" fill="#fff" ry="78.86" rx="80.41" cy="417.01" cx="691.9" class="e"/>
  <path id="svg_27" fill="#1d1e1c" d="m690,501c-47.15,0 -85.51,-37.67 -85.51,-84s38.36,-84 85.51,-84s85.51,37.67 85.51,84s-38.36,84 -85.51,84zm0,-157.73c-41.53,0 -75.32,33.09 -75.32,73.77s33.79,73.77 75.32,73.77s75.32,-33.09 75.32,-73.77s-33.79,-73.8 -75.32,-73.8l0,0.03z" class="c"/>
  <circle id="svg_28" fill="#1d1e1c" r="44.9" cy="405.88" cx="552.6" class="c"/>
  <circle id="svg_29" fill="#fff" r="12.37" cy="399.05" cx="576.67" class="e"/>
  <ellipse id="svg_30" fill="#1d1e1c" ry="34.92" rx="36.39" cy="421.68" cx="698.35" class="c"/>
  <circle id="svg_31" fill="#fff" r="10.01" cy="415.45" cx="691.33" class="e"/>
  <ellipse id="svg_32" opacity="0.2" fill="#1d1e1c" ry="20.09" rx="79.63" cy="771.11" cx="771.92" class="b"/>
  <ellipse id="svg_33" opacity="0.2" fill="#1d1e1c" ry="20.09" rx="79.63" cy="766.75" cx="936.68" class="b"/>
  <ellipse id="svg_34" opacity="0.2" fill="#1d1e1c" ry="20.09" rx="79.63" cy="885.24" cx="897.5" class="b"/>
  <ellipse id="svg_35" opacity="0.2" fill="#1d1e1c" ry="20.09" rx="79.63" cy="828.66" cx="1048.68" class="b"/>
 </g>
</svg>