<svg class="certified skill-logo" version="1.1" id="Calque_1" xmlns="http://www.w3.org/2000/svg" xmlns:xlink="http://www.w3.org/1999/xlink" x="0px" y="0px" viewBox="0 0 284.3 185.7" style="enable-background:new 0 0 284.3 185.7;" xml:space="preserve">
    <g id="ASEIWp.tif">
      <g>
        <path d="M153,21.9c12.2-7.6,24.1-6.9,33.1,2.3c6.5,6.7,9.2,14.9,5.8,23.6c-2.1,5.4-1.6,10.3-1,16c9.9-5.3,19.7-10.6,30-16.1
c0,7.2,0,14,0,21.2c7-1.1,13.5-2,20.3-3c0.8,5.6,1.5,11,2.2,16.3c2.7,20.7,5.3,41.4,8.1,62c0.3,2.3,1.8,4.3,3.3,7.6
c1.1-1.6,1.5-2.6,2.2-3.2c3.7-3.5,8.1-4,12.3-1.5c4.5,2.7,6.6,7.5,5.5,12.2c-0.5,2-1.5,3.6-3.7,3.7c-5.7,0.2-11.5,0.7-17.2,0.2
c-4-0.3-5.5-2.9-5.9-6.9c-1-10.6-2-21.3-3.3-31.9c-2.1-17.2-4.3-34.3-6.5-51.4c-0.1-0.7-0.2-1.3-0.4-2.5
c-5.2,0.8-10.3,1.5-15.4,2.5c-0.5,0.1-1.1,1.5-1.1,2.4c-0.1,18.7-0.1,37.5,0,56.2c0,1,0.3,2.1,0.6,3.4c2.1-1.8,3.9-3.5,5.8-4.9
c3.9-2.9,8.5-2.8,12.1,0c3.9,3.1,5.5,8,3.7,12.2c-0.5,1.2-1.8,2.4-3,2.8c-6.6,1.9-13.2,1.8-19.8,0.2c-3.5-0.9-4.8-3.6-4.3-7.6
c0.4-3.1,0.7-6.2,0.8-9.3c0.1-16.7,0-33.5,0-50.2c0-1.3,0-2.6,0-4.6c-5.1,0.8-9.8,1.5-14.5,2.2c-3.9,0.6-7.7,1-11.6,1.7
c-1.4,0.3-2.6,1.3-3.9,2c0.1,0.4,0.2,0.8,0.3,1.2c5.2,1.5,10.4,3,15.6,4.6c2.9,0.9,6.7,1.1,8.2,3.1c1.4,1.8,0.4,5.5,0.4,8.4
c-0.5,21.9-1,43.7-1.5,65.6c0,1.6,0,3.3,0.8,5.3c1.2-1.3,2.2-2.6,3.5-3.7c4-3.4,8.5-3.8,12.3-1.2c4.2,2.9,6.1,7.8,4.5,12.3
c-0.5,1.3-1.7,2.8-2.9,3.2c-6.1,2.2-12.5,2.2-18.8,0.6c-3.3-0.9-4.4-3.4-4.2-6.7c0.5-11,0.9-22.1,1.2-33.1
c0.4-15.3,0.8-30.5,1.2-45.8c0.1-1.8-0.5-2.6-2.2-3.1c-6.1-1.7-12.2-3.6-18.3-5.2c-0.9-0.2-2.3,0.1-2.9,0.7
c-1.8,1.9-3.4,4.1-5.3,6.5c3.8,0.9,7.4,1.8,11.3,2.8c-4.3,12.9-8.5,25.5-12.7,38.4c6-2.6,10.4-1,12.2,4.1c1.3,3.7-0.1,7-4,7.6
c-4,0.6-8.2,0.7-12.3,0.6c-2.8,0-4-1.7-3-4.5c1.5-4.4,3-8.8,4.5-13.3c3.3-9.8,6.6-19.6,10-29.9c-5.2-0.9-9.3-2.9-15-0.2
c-18.9,9-37.9,8.8-56.2-2.1c-0.9-0.5-2.1-0.9-3-0.8c-3.4,0.6-6.7,1.6-10.4,2.5c0.7,2.3,1.2,4.4,1.9,6.5c3.9,11.6,8,23.2,11.8,34.8
c1.8,5.4,0.8,6.7-4.8,6.7c-3.2,0-6.5-0.1-9.6-0.7c-4.4-0.8-5.9-4.2-4.1-8.3c2.1-4.6,6.4-6,12-3.2c-4.3-13.1-8.5-25.7-12.8-38.6
c4.5-1.1,8.6-2.1,13.2-3.3c-1.8-2.5-3.3-4.9-5.1-7c-0.4-0.5-1.8-0.5-2.7-0.3c-7,1.9-13.9,3.9-20.9,6.1c-0.9,0.3-2,1.8-2,2.7
c0.5,24,1.1,47.9,1.7,71.9c0.1,2.6,0.4,5.1,0.6,7.6c0.3,3.5-1.5,6-4.7,6.2c-5.7,0.4-11.5,0.4-17.2-0.3c-3.6-0.4-5.2-3.8-4.5-8
c0.7-4.5,3.4-7.5,7.5-9.1c4.1-1.6,7.4,0.5,10.4,2.9c1.1,0.9,2,2,3.8,3.9c0-2.3,0-3.6,0-5c-0.6-23.9-1.2-47.7-1.9-71.6
c-0.1-3,0.7-4.3,3.6-5.1c7-1.8,13.9-4,20.9-6c1-0.3,1.9-0.7,2.9-1c0-0.4,0-0.7-0.1-1.1c-10.7-1.6-21.4-3.3-32.6-5
c0,1.7,0,2.9,0,4.1c0,16.8,0,33.7,0,50.5c0,3.2,0.4,6.4,0.9,9.6c0.6,4.1-1,7.2-5.1,7.6c-5.5,0.5-11.1,0.6-16.6,0.2
c-5.1-0.4-7.2-4.2-5.9-9.3c2.1-7.9,10.4-10.7,16.9-5.7c1.7,1.3,3.2,2.8,5.2,4.6c0.2-1.7,0.4-3,0.4-4.2c0-18.3,0-36.6,0.1-54.9
c0-2.4-0.7-3.3-3.1-3.6c-4.4-0.5-8.8-1.3-13.5-2c-1,7.3-1.9,14.3-2.8,21.4c-2.4,19.1-4.8,38.3-7.2,57.4c-0.3,2.1-0.2,4.2-0.2,6.3
c0,4.6-2,7.4-6.5,7.8c-4.8,0.5-9.8,0.5-14.6,0c-5-0.5-7-3.7-5.9-8.7c1-4.4,3.8-7.2,7.9-8.8c4-1.5,7.2,0.2,10.1,2.7
c0.7,0.6,1.2,1.3,2.5,2.8c1.2-3.3,2.8-5.9,3.1-8.7c3.4-25,6.5-50,9.8-74.9c0.1-0.5,0.2-1.1,0.4-2c6.5,1,13,1.9,19.8,3
c0-7,0-13.8,0-21.3C74.8,53.3,85.8,59.1,96.7,65c1-5.3,2-10.3,2.7-15.3c0.1-1-0.6-2.1-0.9-3.2C92,27.8,104.1,7.9,123.8,5.7
c10.7-1.2,19.3,3.4,25.9,11.8c1,1.3,1.9,2.8,2.8,4.1C152.6,21.7,152.7,21.7,153,21.9z M186.2,58.5c-13.4,9.8-25.8,9.1-37.4-2.1
c-6.4,7-14.1,10.8-23.5,10.4c-9.3-0.3-16.7-4.6-22.7-11.9c-4.1,15.9,3.1,32.2,17,39.6c9.5,5.1,19.8,5.8,30.2,4.9
c12.2-1.1,23-5.4,30.4-15.8C185.5,76.2,187,67.9,186.2,58.5z M128,8.5c-11.2,0-19.9,5.1-24.7,13.7c-5.1,9.2-5.3,18.6-0.1,27.7
c9.3,16.5,30.5,18.9,42.5,5.1c0.6-0.7,0.9-2.4,0.5-3.3c-3.9-9-3.3-17.6,2.7-25.5c1.3-1.6,1.3-2.9,0.3-4.4
C143.9,13.4,136.4,8.8,128,8.5z M168.4,62.3c12.1,0,22-9.7,21.9-21.5c-0.1-11.7-9.8-21.2-21.8-21.2c-12.1-0.1-22,9.7-21.9,21.4
C146.6,52.7,156.6,62.3,168.4,62.3z M97.8,73.6c0.3-0.3,0.6-0.7,1-1c-1-1.1-1.7-2.6-2.9-3.3c-5.6-3.2-11.3-6.2-17-9.2
c-3.6-1.9-7.2-3.8-10.7-5.6c-0.4,0.6-0.5,0.7-0.6,0.9c0,2.6-0.1,5.1-0.1,7.7c0,5.8,0,5.9,5.7,6.8C81.4,71.2,89.6,72.4,97.8,73.6z
M216.6,69.6c0-5.2,0-9.8,0-14.8c-8.1,4.3-15.7,8.6-23.5,12.6c-2.7,1.4-3.7,3.2-3.2,6.4C198.8,72.3,207.7,71,216.6,69.6z">
        </path>
        <path d="M128.8,50.6c-7.1,0-13-5.8-13-12.9c0-6.9,5.7-12.7,12.7-12.8c7.2-0.1,13.1,5.5,13.1,12.7C141.7,44.8,136,50.6,128.8,50.6z
M140.9,36c-2.3-1.8-3.7-3.7-5-3.7c-1.3,0.1-3.3,1.8-3.7,3.2c-0.6,2.2,1.1,4.1,3.4,3.8C137.1,39.1,138.5,37.6,140.9,36z">
        </path>
        <path d="M170.9,52.3c-5.8,0-10.4-4.4-10.4-9.9c0-5.6,4.8-10.2,10.6-10.1c5.7,0.1,10.3,4.6,10.3,10.1
C181.2,47.9,176.6,52.3,170.9,52.3z M173,40.8c-1.8-1.5-3-3.1-4-3c-1.1,0-2.1,1.7-3.1,2.6c0.9,1,1.8,2.7,2.8,2.9
C169.7,43.4,171,42,173,40.8z"></path>
      </g>
    </g>
  </svg>