<svg width="400" height="470" xmlns="http://www.w3.org/2000/svg" clip-rule="evenodd" version="1.1">

 <g>
  <title>Layer 1</title>
  <g id="svg_1">
   <path stroke="#000000" id="svg_2" opacity="0.995" d="m188.5,8.5c16.337,-0.1666 32.67,0.00007 49,0.5c12.981,10.8243 23.981,23.3243 33,37.5c1.982,0.7162 3.649,1.8829 5,3.5c-0.333,0.3333 -0.667,0.6667 -1,1c5.138,11.595 9.638,23.4283 13.5,35.5c3.179,16.51 4.179,33.177 3,50c-0.607,7.868 -2.107,15.534 -4.5,23c-0.586,-0.209 -1.086,-0.543 -1.5,-1c-0.269,-12.949 -2.269,-25.615 -6,-38c-2.68,-14.192 -9.18,-26.3588 -19.5,-36.5c-14.814,-8.4193 -30.814,-12.2526 -48,-11.5c-45.701,3.1544 -91.367,6.4878 -137,10c0.6217,-1.1266 1.455,-2.1266 2.5,-3c3.5128,-10.3826 7.1795,-20.716 11,-31c5.0756,-8.7346 10.2422,-17.4012 15.5,-26c8.114,-2.8583 16.447,-5.025 25,-6.5c13.058,-1.6116 26.058,-3.6116 39,-6c6.967,-0.99731 13.967,-1.49731 21,-1.5z" fill="#000000"/>
  </g>
  <g opacity="0.998" fill="#000000" id="svg_3">
   <path stroke="#000000" id="svg_4" opacity="0.993" d="m250.5,6.5c9.838,0.43841 19.838,0.93841 30,1.5c24.696,5.695 40.196,20.8617 46.5,45.5c7.828,34.1829 8.662,68.516 2.5,103c-1.068,0.934 -2.401,1.268 -4,1c4.654,-62.5119 -19.013,-110.0119 -71,-142.5c-3.871,-2.2972 -7.871,-4.2972 -12,-6c2.666,-1.06053 5.333,-1.89386 8,-2.5z" fill="#000000"/>
  </g>
  <g id="svg_5">
   <path stroke="#000000" id="svg_6" opacity="0.998" d="m250.5,6.5c-2.667,0.60614 -5.334,1.43947 -8,2.5c4.129,1.7028 8.129,3.7028 12,6c51.987,32.4881 75.654,79.9881 71,142.5c-10.953,3 -22.286,5 -34,6c-45.021,-1.264 -90.021,-1.264 -135,0c-0.854,1.022 -1.854,1.855 -3,2.5c-11.043,1.152 -21.876,3.319 -32.5,6.5c-2.345,-1.689 -4.178,-1.189 -5.5,1.5c-4,1 -8,2 -12,3c-2.379,0.716 -4.3791,1.883 -6,3.5c-5.7171,2.356 -11.3838,5.023 -17,8c-3.1884,-1.425 -6.1884,-3.092 -9,-5c-4.6835,-2.363 -9.3501,-4.696 -14,-7c-21.0991,-12.933 -37.5991,-30.266 -49.5,-52c-4.84734,-11.455 -2.34734,-20.955 7.5,-28.5c15.1359,-7.3951 31.1359,-11.5618 48,-12.5c3.8714,0.315 7.5381,-0.0184 11,-1c45.633,-3.5122 91.299,-6.8456 137,-10c17.186,-0.7526 33.186,3.0807 48,11.5c10.32,10.1412 16.82,22.308 19.5,36.5c3.731,12.385 5.731,25.051 6,38c0.414,0.457 0.914,0.791 1.5,1c2.393,-7.466 3.893,-15.132 4.5,-23c1.179,-16.823 0.179,-33.49 -3,-50c-3.862,-12.0717 -8.362,-23.905 -13.5,-35.5c0.333,-0.3333 0.667,-0.6667 1,-1c-1.351,-1.6171 -3.018,-2.7838 -5,-3.5c-9.019,-14.1757 -20.019,-26.6757 -33,-37.5c-16.33,-0.49993 -32.663,-0.6666 -49,-0.5c20.502,-0.85949 41.168,-1.52616 62,-2z" fill="#000000"/>
  </g>
  <g id="svg_7">
   <path stroke="#000000" id="svg_8" d="m103.5,22.5c-5.2578,8.5988 -10.4244,17.2654 -15.5,26c-3.8205,10.284 -7.4872,20.6174 -11,31c-1.045,0.8734 -1.8783,1.8734 -2.5,3c-3.4619,0.9816 -7.1286,1.315 -11,1c-0.0345,-14.3302 2.7989,-27.9968 8.5,-41c8.5991,-9.8707 19.0991,-16.5374 31.5,-20z" fill="#000000"/>
  </g>
  <g id="svg_9">
   <path id="svg_10" d="m114.5,43.5c2.333,0 4.667,0 7,0c0,1 0,2 0,3c-2.292,-0.2564 -4.459,0.0769 -6.5,1c-1.075,4.27 -1.575,8.6033 -1.5,13c4.831,0.3379 6.165,-1.6621 4,-6c1.667,0 3.333,0 5,0c0.277,2.9475 -0.056,5.7809 -1,8.5c-3.333,0.6667 -6.667,0.6667 -10,0c-0.5,-0.5 -1,-1 -1.5,-1.5c-0.84,-6.6951 0.66,-12.6951 4.5,-18z" fill="#ffffff"/>
  </g>
  <g id="svg_11">
   <path id="svg_12" d="m176.5,58.5c-1.333,0 -2.667,0 -4,0c0,-2 0,-4 0,-6c0.83,-4.6202 1.663,-9.2869 2.5,-14c12.621,-3.0449 15.787,1.1218 9.5,12.5c-2.563,1.0793 -5.229,1.5793 -8,1.5c0,2 0,4 0,6z" fill="#ffffff"/>
  </g>
  <g id="svg_13">
   <path id="svg_14" d="m177.5,41.5c2,0 4,0 6,0c1.315,5.336 -0.685,8.0026 -6,8c0,-2.6667 0,-5.3333 0,-8z" fill="#000000"/>
  </g>
  <g id="svg_15">
   <path id="svg_16" d="m209.5,35.5c11.076,-3.0855 14.576,0.5811 10.5,11c-2.141,2.8208 -4.975,4.1541 -8.5,4c0,1.6667 0,3.3333 0,5c-1.333,0 -2.667,0 -4,0c0.198,-6.7181 0.865,-13.3847 2,-20z" fill="#ffffff"/>
  </g>
  <g id="svg_17">
   <path id="svg_18" d="m212.5,38.5c2,0 4,0 6,0c1.362,5.2872 -0.638,7.9539 -6,8c0,-2.6667 0,-5.3333 0,-8z" fill="#000000"/>
  </g>
  <g id="svg_19">
   <path id="svg_20" d="m127.5,47.5c2.747,-0.3134 5.414,0.02 8,1c-1.268,1.547 -2.935,2.547 -5,3c-0.989,3.6073 -1.323,7.274 -1,11c-1.333,0 -2.667,0 -4,0c-0.066,-5.1376 0.6,-10.1376 2,-15z" fill="#ffffff"/>
  </g>
  <g id="svg_21">
   <path id="svg_22" d="m170.5,46.5c0.667,2 1.333,4 2,6c0,2 0,4 0,6c1.333,0 2.667,0 4,0c-2.046,1.4653 -3.88,1.132 -5.5,-1c-0.839,1.1241 -2.006,1.7908 -3.5,2c-1.869,-0.6226 -3.535,-0.6226 -5,0c-0.165,-3.6817 0.001,-7.3484 0.5,-11c1.011,-0.8366 2.178,-1.17 3.5,-1c0,3.6667 0,7.3333 0,11c1,0 2,0 3,0c0.772,-3.9517 1.105,-7.9517 1,-12z" fill="#000000"/>
  </g>
  <g id="svg_23">
   <path id="svg_24" d="m170.5,46.5c0.105,4.0483 -0.228,8.0483 -1,12c-1,0 -2,0 -3,0c0,-3.6667 0,-7.3333 0,-11c-1.322,-0.17 -2.489,0.1634 -3.5,1c-0.499,3.6516 -0.665,7.3183 -0.5,11c-0.333,0 -0.667,0 -1,0c-1,0 -2,0 -3,0c-0.181,-2.8971 0.152,-5.7305 1,-8.5c-0.833,-2.5 -2.333,-3 -4.5,-1.5c-0.936,3.6135 -1.436,7.2802 -1.5,11c-1,0 -2,0 -3,0c0.113,-5.018 0.447,-10.018 1,-15c4.872,0.1912 9.705,-0.1421 14.5,-1c1.833,0.0186 3.333,0.6852 4.5,2z" fill="#ffffff"/>
  </g>
  <g id="svg_25">
   <path id="svg_26" d="m201.5,36.5c1,0 2,0 3,0c-0.654,6.3097 -1.154,12.643 -1.5,19c-1.011,0.8366 -2.178,1.17 -3.5,1c0,-2.6667 0,-5.3333 0,-8c-1.788,-0.2852 -3.455,0.0481 -5,1c-0.667,2.3333 -1.333,4.6667 -2,7c-0.825,0.8857 -1.825,1.219 -3,1c0.174,-6.7245 0.841,-13.3911 2,-20c1,0 2,0 3,0c0,2.3333 0,4.6667 0,7c2,0 4,0 6,0c0.075,-2.7062 0.408,-5.3728 1,-8z" fill="#ffffff"/>
  </g>
  <g id="svg_27">
   <path id="svg_28" d="m145.5,46.5c1,0 2,0 3,0c-0.729,4.6304 -1.063,9.2971 -1,14c-3.333,0.3333 -6.667,0.6667 -10,1c-0.941,-4.5704 -1.274,-9.237 -1,-14c1,0 2,0 3,0c0,3.6667 0,7.3333 0,11c1.333,0 2.667,0 4,0c0.456,-4.1643 1.122,-8.1643 2,-12z" fill="#ffffff"/>
  </g>
  <g id="svg_29">
   <path id="svg_30" d="m151.5,45.5c-0.553,4.982 -0.887,9.982 -1,15c1,0 2,0 3,0c0.064,-3.7198 0.564,-7.3865 1.5,-11c2.167,-1.5 3.667,-1 4.5,1.5c-0.848,2.7695 -1.181,5.6029 -1,8.5c1,0 2,0 3,0c-1.031,0.7485 -2.198,1.4152 -3.5,2c-0.192,-2.0767 -0.692,-4.0767 -1.5,-6c-0.818,2.6071 -1.318,5.2737 -1.5,8c-2.124,-0.7272 -4.291,-1.3938 -6.5,-2c-3.799,1.2927 -7.466,1.2927 -11,0c3.333,-0.3333 6.667,-0.6667 10,-1c-0.063,-4.7029 0.271,-9.3696 1,-14c-1,0 -2,0 -3,0c0.12,-1.0862 0.787,-1.7528 2,-2c1.349,0.3457 2.683,0.679 4,1z" fill="#000000"/>
  </g>
  <g id="svg_31">
   <path stroke="#000000" id="svg_32" opacity="0.864" d="m335.5,255.5c0,-1.333 0,-2.667 0,-4c0.295,-2.235 -0.039,-4.235 -1,-6c0,-0.667 0,-1.333 0,-2c0.172,-0.992 -0.162,-1.658 -1,-2c-4.039,-18.084 -10.872,-35.084 -20.5,-51c-0.427,6.027 -1.093,12.027 -2,18c-0.608,1.566 -1.442,2.9 -2.5,4c-2.874,-8.087 -6.041,-16.087 -9.5,-24c-2.941,-5.562 -6.108,-10.895 -9.5,-16c-0.475,-2.284 -1.475,-4.284 -3,-6c0,-0.333 0,-0.667 0,-1c1.903,-0.296 3.57,-0.963 5,-2c11.714,-1 23.047,-3 34,-6c1.599,0.268 2.932,-0.066 4,-1c18.014,-2.355 35.681,-0.855 53,4.5c3.337,1.333 6.337,3.166 9,5.5c-1.412,1.306 -3.079,2.14 -5,2.5c1.849,1.093 3.516,2.426 5,4c-0.333,0.333 -0.667,0.667 -1,1c-2.356,0.155 -4.689,0.155 -7,0c1.823,1.658 3.49,3.491 5,5.5c-1,0.333 -2,0.667 -3,1c-5.054,-1.047 -10.054,-1.88 -15,-2.5c4.878,6.922 9.878,13.755 15,20.5c-0.5,0.333 -1,0.667 -1.5,1c-5.281,-2.448 -10.447,-5.115 -15.5,-8c-0.821,2.947 -1.321,5.947 -1.5,9c-4.482,-1.817 -8.315,-4.484 -11.5,-8c-0.333,0.333 -0.667,0.667 -1,1c3.353,5.699 5.019,11.699 5,18c-2.667,-3.667 -5.333,-7.333 -8,-11c-3.333,-2.667 -6.333,-5.667 -9,-9c-0.333,0.5 -0.667,1 -1,1.5c5.274,14.85 6.608,30.017 4,45.5c-0.586,-0.209 -1.086,-0.543 -1.5,-1c0.047,-5.897 -1.62,-11.23 -5,-16c-0.325,7.846 -0.825,15.679 -1.5,23.5c0.967,4.2 0.967,8.367 0,12.5c-0.682,-0.743 -1.349,-1.409 -2,-2z" fill="#000000"/>
  </g>
  <g id="svg_33">
   <path id="svg_34" d="m348.5,159.5c9.758,-0.205 19.425,0.628 29,2.5c-5.8,0.945 -11.466,2.612 -17,5c6.333,2.333 12.667,4.667 19,7c-7.381,0.235 -14.714,0.735 -22,1.5c-2.554,0.888 -5.221,1.221 -8,1c0,-1.333 0,-2.667 0,-4c-2.099,0.731 -4.099,0.731 -6,0c0.376,-2.861 1.043,-5.861 2,-9c1.373,0.157 2.707,-0.01 4,-0.5c-0.837,-1.011 -1.17,-2.178 -1,-3.5z" fill="#000000"/>
  </g>
  <g id="svg_39">
   <path id="svg_40" d="m171.5,165.5c0,0.333 0,0.667 0,1c-4.314,0.775 -8.647,1.441 -13,2c-11.311,1.664 -22.645,3.331 -34,5c15.186,-4.696 30.852,-7.362 47,-8z" fill="#000000"/>
  </g>
  <g id="svg_41">
   <path stroke="#000000" id="svg_42" opacity="0.992" d="m158.5,168.5c-11.566,3.362 -22.566,8.196 -33,14.5c0.556,0.383 0.889,0.883 1,1.5c-0.667,0 -1.333,0 -2,0c0.065,-0.438 -0.101,-0.772 -0.5,-1c-9.049,5.265 -17.216,11.599 -24.5,19c-12.4742,9.277 -18.1408,21.611 -17,37c-1.1076,-6.499 -1.6076,-13.166 -1.5,-20c1.7146,-2.259 3.5479,-4.426 5.5,-6.5c-6.4492,1.225 -12.1159,4.058 -17,8.5c-0.3333,0.667 -0.6667,1.333 -1,2c-3.1409,2.626 -6.4742,4.959 -10,7c-5.8786,4.137 -6.3786,3.47 -1.5,-2c5.7029,-5.535 11.2029,-11.202 16.5,-17c6.4383,-4.593 12.7717,-9.427 19,-14.5c-7.4308,-1.737 -14.7641,-1.904 -22,-0.5c-12.0973,2.497 -23.7639,6.497 -35,12c1.9192,-2.32 3.9192,-4.653 6,-7c10.267,-5.61 20.267,-11.61 30,-18c2.8116,1.908 5.8116,3.575 9,5c5.6162,-2.977 11.2829,-5.644 17,-8c8.951,-2.539 17.951,-4.873 27,-7c11.355,-1.669 22.689,-3.336 34,-5z" fill="#000000"/>
  </g>
  <g id="svg_43">
   <path stroke="#000000" id="svg_44" d="m348.5,159.5c-0.17,1.322 0.163,2.489 1,3.5c-1.293,0.49 -2.627,0.657 -4,0.5c-0.957,3.139 -1.624,6.139 -2,9c1.901,0.731 3.901,0.731 6,0c0,1.333 0,2.667 0,4c2.779,0.221 5.446,-0.112 8,-1c6.144,5.303 12.478,10.469 19,15.5c-10.485,-4.401 -21.152,-8.567 -32,-12.5c-0.886,-0.825 -1.219,-1.825 -1,-3c-1.478,0.262 -2.811,-0.071 -4,-1c0.873,-5.16 2.206,-10.16 4,-15c1.667,0 3.333,0 5,0z" fill="#000000"/>
  </g>
  <g id="svg_45">
   <path stroke="#000000" id="svg_46" d="m291.5,163.5c-1.43,1.037 -3.097,1.704 -5,2c-38.343,-0.936 -76.677,-0.936 -115,0c-16.148,0.638 -31.814,3.304 -47,8c-9.049,2.127 -18.049,4.461 -27,7c1.6209,-1.617 3.621,-2.784 6,-3.5c4,-1 8,-2 12,-3c1.322,-2.689 3.155,-3.189 5.5,-1.5c10.624,-3.181 21.457,-5.348 32.5,-6.5c1.146,-0.645 2.146,-1.478 3,-2.5c44.979,-1.264 89.979,-1.264 135,0z" fill="#000000"/>
  </g>
  <g id="svg_47">
   <path stroke="#000000" id="svg_48" opacity="0.876" d="m57.5,176.5c4.6499,2.304 9.3165,4.637 14,7c-9.733,6.39 -19.733,12.39 -30,18c-1.9672,-0.239 -3.8005,0.094 -5.5,1c-0.6667,-1 -0.6667,-2 0,-3c7.6193,-7.235 14.786,-14.901 21.5,-23z" fill="#000000"/>
  </g>
  <g id="svg_49">
   <path stroke="#000000" id="svg_50" d="m124.5,184.5c0.667,0 1.333,0 2,0c15.473,9.238 30.806,18.738 46,28.5c-0.948,0.483 -1.948,0.649 -3,0.5c-2.306,-0.493 -4.639,-0.826 -7,-1c-2.186,-1.465 -4.519,-1.798 -7,-1c0.355,1.022 1.022,1.689 2,2c3.249,5.662 2.249,10.496 -3,14.5c-10.622,3.204 -15.288,-0.63 -14,-11.5c2.202,1.28 4.368,1.28 6.5,0c0.312,-2.809 -0.188,-5.476 -1.5,-8c-7.42,-0.355 -14.754,-1.355 -22,-3c-2.469,-0.817 -5.135,-1.317 -8,-1.5c-0.457,-0.414 -0.791,-0.914 -1,-1.5c3.345,-6.027 6.679,-12.027 10,-18z" fill="#000000"/>
  </g>
  <g id="svg_51">
   <path stroke="#000000" id="svg_52" d="m262.5,205.5c-6.388,0.676 -12.722,1.676 -19,3c-2.667,0.667 -2.667,1.333 0,2c5.81,3.286 7.31,7.953 4.5,14c-5.409,6.074 -11.075,6.407 -17,1c-3.068,-3.94 -3.234,-7.94 -0.5,-12c0.333,0 0.667,0 1,0c0.28,3.725 2.28,4.892 6,3.5c1.48,-2.235 1.147,-4.068 -1,-5.5c-3,-1.333 -6,-1.333 -9,0c-3.13,0.2 -6.13,0.866 -9,2c-2.369,0.351 -4.703,0.518 -7,0.5c16.401,-9.953 32.901,-19.786 49.5,-29.5c4.906,5.547 8.406,11.88 10.5,19c-3.281,-0.08 -6.281,0.587 -9,2z" fill="#000000"/>
  </g>
  <g id="svg_53">
   <path stroke="#000000" id="svg_54" d="m70.5,196.5c7.2359,-1.404 14.5692,-1.237 22,0.5c-6.2283,5.073 -12.5617,9.907 -19,14.5c0,-5 0,-10 0,-15c-1,0 -2,0 -3,0z" fill="#000000"/>
  </g>
  <g id="svg_55">
   <path stroke="#000000" id="svg_56" opacity="0.989" d="m333.5,241.30917c-0.172,0.992 0.162,1.658 1,2c0,0.667 0,1.333 0,2c-0.295,2.235 0.039,4.235 1,6c0,1.333 0,2.667 0,4c0.021,4.88 1.355,9.38 4,13.5c-0.5,0.5 -1,1 -1.5,1.5c-1.992,-3.49 -4.826,-6.157 -8.5,-8c-1.569,1.214 -2.402,2.881 -2.5,5c-1.242,15.225 -0.075,30.225 3.5,45c-2.161,-0.326 -3.994,-1.326 -5.5,-3c-3.74,-4.549 -6.74,-9.549 -9,-15c0.402,23.487 -1.265,46.82 -5,70c-2.76,12.506 -7.426,24.173 -14,35c-3.707,-3.076 -6.707,-6.742 -9,-11c-2.401,-6.536 -4.401,-13.203 -6,-20c-4.474,31.252 -15.807,59.585 -34,85c-0.741,1.141 -1.575,1.141 -2.5,0c-4.839,-8.687 -6.672,-18.02 -5.5,-28c0.8,-6.789 1.8,-13.456 3,-20c-8.916,13.258 -18.25,26.258 -28,39c-5.153,6.12 -10.653,11.953 -16.5,17.5c-0.948,0.483 -1.948,0.649 -3,0.5c-6.392,-20.584 -17.558,-38.251 -33.5,-53c-6.194,12.155 -7.694,24.822 -4.5,38c-0.865,1.083 -1.865,1.249 -3,0.5c-17.755,-17.09 -31.589,-36.924 -41.5,-59.5c-2.285,-7.19 -3.952,-14.524 -5,-22c-1.716,3.14 -3.049,6.473 -4,10c-1.383,9.018 -1.883,18.018 -1.5,27c-14.4247,-15.949 -22.4247,-34.616 -24,-56c0.3507,-10.413 3.0174,-20.08 8,-29c0,0.667 0,1.333 0,2c-2.1534,19.081 0.6799,37.414 8.5,55c1.8241,-8.63 5.157,-16.63 10,-24c5.269,-6.882 10.769,-13.548 16.5,-20c1.725,-2.698 4.059,-4.698 7,-6c0,2 0,4 0,6c0.157,1.373 -0.01,2.707 -0.5,4c-2,-2.667 -4,-2.667 -6,0c-1.65,7.454 -1.817,14.788 -0.5,22c2.221,22.511 10.387,42.511 24.5,60c-1.19,-15.901 2.31,-30.568 10.5,-44c3.904,4.148 7.571,8.481 11,13c3.265,6.201 7.265,11.868 12,17c8.234,10.76 15.067,22.427 20.5,35c6.754,-6.913 12.92,-14.247 18.5,-22c3.026,-3.705 5.692,-7.705 8,-12c3.183,-4.364 5.849,-9.031 8,-14c-0.36,-1.921 -1.194,-3.588 -2.5,-5c-0.333,0.667 -0.667,1.333 -1,2c-4.087,-2.446 -8.587,-3.946 -13.5,-4.5c-1.678,-1.591 -2.678,-3.091 -3,-4.5c-2.539,0.615 -5.039,1.282 -7.5,2c-1.333,-0.667 -2.333,-1.667 -3,-3c-0.333,0.667 -0.667,1.333 -1,2c-0.833,-1.5 -2,-2.667 -3.5,-3.5c0.671,-0.986 0.671,-2.153 0,-3.5c2.953,-4.125 6.119,-8.125 9.5,-12c1.269,4.149 1.935,8.482 2,13c6.995,-8.817 11.162,-18.817 12.5,-30c0.983,-3.798 1.317,-7.798 1,-12c0,-2 0,-4 0,-6c-5.32,0.738 -10.653,0.404 -16,-1c-0.477,-0.978 -1.143,-1.811 -2,-2.5c-9.567,-2.374 -19.067,-4.874 -28.5,-7.5c-1.243,0.836 -2.41,0.503 -3.5,-1c0.502,-1.216 0.835,-2.383 1,-3.5c11.328,-0.5 22.662,-0.667 34,-0.5c4.667,1.667 9.333,3.333 14,5c1.909,2.373 3.742,2.373 5.5,0c5.181,5.001 9.348,10.668 12.5,17c0.262,1.478 -0.071,2.811 -1,4c-2.746,2.123 -5.579,4.123 -8.5,6c-0.279,1.912 0.554,3.246 2.5,4c7.813,10.273 14.647,21.273 20.5,33c2.705,6.03 4.038,12.364 4,19c13.258,-22.547 17.092,-46.547 11.5,-72c-0.545,-2.093 -1.378,-4.093 -2.5,-6c-7.084,4.366 -14.084,8.7 -21,13c-0.497,-2.31 -0.663,-4.643 -0.5,-7c1.28,-7.462 1.28,-14.796 0,-22c0.136,-3.051 -0.198,-6.051 -1,-9c-0.667,-2 -2,-3.333 -4,-4c-10.975,2.242 -21.641,5.409 -32,9.5c-2.31,0.497 -4.643,0.663 -7,0.5c-14.415,-2.446 -27.415,0.554 -39,9c-0.111,-0.617 -0.444,-1.117 -1,-1.5c1.229,-1.529 2.729,-2.696 4.5,-3.5c0.688,-0.832 0.521,-1.498 -0.5,-2c-10.64,-2.491 -21.14,-5.491 -31.5,-9c-3.642,3.851 -5.475,8.518 -5.5,14c-0.662,3.966 -0.995,7.966 -1,12c-0.658,0.898 -1.324,1.898 -2,3c-12.628,-4.386 -25.628,-7.386 -39,-9c1.8439,-1.256 3.1772,-2.923 4,-5c-0.3988,-1.697 -0.8988,-3.363 -1.5,-5c-0.6667,-1.333 -1.3333,-1.333 -2,0c0.2719,-5.288 0.4385,-10.622 0.5,-16c1.394,6.606 3.0606,13.273 5,20c5.4602,-5.806 11.46,-10.806 18,-15c17.383,-9.794 36.05,-15.794 56,-18c6.681,0.169 12.681,2.336 18,6.5c3,0.667 6,0.667 9,0c3.172,-1.752 6.172,-3.752 9,-6c2.646,-0.497 5.313,-0.664 8,-0.5c13.052,1.675 26.052,3.675 39,6c11.814,2.988 23.647,6.321 35.5,10c1.167,-0.167 2.333,-0.333 3.5,-0.5c12.033,-10.898 19.199,-24.398 21.5,-40.5c0.667,-10 0.667,-20 0,-30c-0.168,-2.677 -1.001,-5.01 -2.5,-7c1.058,-1.1 1.892,-2.434 2.5,-4c0.907,-5.973 1.573,-11.973 2,-18c9.628,15.916 16.461,32.916 20.5,51z" fill="#000000"/>
  </g>
  <g id="svg_59">
   <path stroke="#000000" id="svg_60" d="m123.5,205.5c7.246,1.645 14.58,2.645 22,3c1.312,2.524 1.812,5.191 1.5,8c-2.132,1.28 -4.298,1.28 -6.5,0c-1.288,10.87 3.378,14.704 14,11.5c5.249,-4.004 6.249,-8.838 3,-14.5c1.419,-0.951 3.085,-1.284 5,-1c2.361,0.174 4.694,0.507 7,1c4.413,4.869 3.747,9.036 -2,12.5c-14.796,8.811 -29.462,8.478 -44,-1c-4.598,-3.767 -7.765,-8.267 -9.5,-13.5c2.522,-3.169 5.688,-5.169 9.5,-6z" fill="#ffffff"/>
  </g>
  <g id="svg_61">
   <path stroke="#000000" id="svg_62" d="m262.5,205.5c4.66,0.248 8.493,2.248 11.5,6c0.667,1 0.667,2 0,3c-10.304,13.065 -23.804,18.899 -40.5,17.5c-4.081,-1.471 -8.081,-3.138 -12,-5c-2.603,-2.094 -4.603,-4.594 -6,-7.5c0.484,-2.301 1.484,-4.301 3,-6c2.87,-1.134 5.87,-1.8 9,-2c1.373,-0.157 2.707,0.01 4,0.5c-0.556,0.383 -0.889,0.883 -1,1.5c-2.734,4.06 -2.568,8.06 0.5,12c5.925,5.407 11.591,5.074 17,-1c2.81,-6.047 1.31,-10.714 -4.5,-14c0,-0.667 0,-1.333 0,-2c6.278,-1.324 12.612,-2.324 19,-3z" fill="#ffffff"/>
  </g>
  <g id="svg_65">
   <path stroke="#000000" id="svg_66" d="m243.5,208.5c0,0.667 0,1.333 0,2c-2.667,-0.667 -2.667,-1.333 0,-2z" fill="#000000"/>
  </g>
  <g id="svg_67">
   <path stroke="#000000" id="svg_68" d="m162.5,212.5c-1.915,-0.284 -3.581,0.049 -5,1c-0.978,-0.311 -1.645,-0.978 -2,-2c2.481,-0.798 4.814,-0.465 7,1z" fill="#000000"/>
  </g>
  <g id="svg_69">
   <path stroke="#000000" id="svg_70" d="m227.5,211.5c3,-1.333 6,-1.333 9,0c-2.054,-0.135 -3.721,0.532 -5,2c-0.333,0 -0.667,0 -1,0c0.111,-0.617 0.444,-1.117 1,-1.5c-1.293,-0.49 -2.627,-0.657 -4,-0.5z" fill="#000000"/>
  </g>
  <g id="svg_71">
   <path stroke="#000000" id="svg_72" d="m236.5,211.5c2.147,1.432 2.48,3.265 1,5.5c-3.72,1.392 -5.72,0.225 -6,-3.5c1.279,-1.468 2.946,-2.135 5,-2z" fill="#000000"/>
  </g>
  <g id="svg_73">
   <path stroke="#000000" id="svg_74" d="m330.5,203.5c1.293,1.342 2.126,3.009 2.5,5c1.142,8.311 1.475,16.645 1,25c-2.395,-8.628 -5.228,-17.128 -8.5,-25.5c0.18,-2.241 1.013,-2.741 2.5,-1.5c1.045,-0.873 1.878,-1.873 2.5,-3z" fill="#000000"/>
  </g>
  <g id="svg_75">
   <path stroke="#000000" id="svg_76" opacity="0.978" d="m82.5,239.5c1.602,16.011 3.602,32.011 6,48c-0.0615,5.378 -0.2281,10.712 -0.5,16c0.6667,-1.333 1.3333,-1.333 2,0c0.6012,1.637 1.1012,3.303 1.5,5c-0.8228,2.077 -2.1561,3.744 -4,5c-0.1287,1.716 -0.462,3.383 -1,5c-4.9826,8.92 -7.6493,18.587 -8,29c-2,0 -4,0 -6,0c2.2584,-8.281 4.425,-16.614 6.5,-25c0.4108,-5.019 0.9108,-10.019 1.5,-15c1.8097,-3.81 2.3097,-7.81 1.5,-12c-2.9987,5.153 -6.1654,10.153 -9.5,15c-4.1948,5.088 -9.5281,6.754 -16,5c4.8941,-7.995 9.2274,-16.329 13,-25c-0.4312,-0.793 -0.7645,-1.627 -1,-2.5c2.0504,-3.481 3.717,-7.148 5,-11c-1.7785,0.044 -3.4452,0.711 -5,2c-3.3675,3.703 -7.0342,7.036 -11,10c-1.1001,0.432 -1.7668,-0.068 -2,-1.5c2.477,-5.452 4.8104,-10.952 7,-16.5c-1.438,-0.219 -2.7713,-0.719 -4,-1.5c4.0846,-2.737 6.4179,-6.571 7,-11.5c-1.3993,-1.062 -2.3993,-2.395 -3,-4c1.9089,-3.066 3.5755,-6.232 5,-9.5c0.6174,-0.111 1.1174,-0.444 1.5,-1c0.4337,-5.742 1.267,-11.409 2.5,-17c-0.0561,-2.14 -0.7227,-3.806 -2,-5c4.8841,-4.442 10.5508,-7.275 17,-8.5c-1.9521,2.074 -3.7854,4.241 -5.5,6.5c-0.1076,6.834 0.3924,13.501 1.5,20z" fill="#000000"/>
  </g>
  <g id="svg_77">
   <path stroke="#000000" id="svg_78" d="m333.5,198.5c2.222,-0.322 4.056,0.345 5.5,2c1.874,6.572 2.874,13.238 3,20c-3.14,-7.27 -5.974,-14.603 -8.5,-22z" fill="#000000"/>
  </g>
  <g id="svg_57">
   <path stroke="#000000" id="svg_58" opacity="0.802" d="m71.1085,196.29717c1,0 2,0 3,0c0,5 0,10 0,15c-5.2971,5.798 -10.7971,11.465 -16.5,17c-4.8786,5.47 -4.3786,6.137 1.5,2c-1.7931,10.71 -0.4598,21.043 4,31c-0.865,1.083 -1.865,1.249 -3,0.5c-11.4807,-12.111 -13.9807,-25.944 -7.5,-41.5c2.0391,-4.245 4.2058,-8.412 6.5,-12.5c-5.4319,2.635 -10.9319,5.468 -16.5,8.5c-0.6302,-2.403 0.2031,-4.237 2.5,-5.5c-2.5217,-0.499 -5.0217,-0.332 -7.5,0.5c-2.5781,-0.182 -3.0781,-1.182 -1.5,-3c11.2361,-5.503 22.9027,-9.503 35,-12z" fill="#000000"/>
  </g>
  <g id="svg_79">
   <path stroke="#000000" id="svg_80" opacity="0.658" d="m69.5,221.5c1.2773,1.194 1.9439,2.86 2,5c-1.233,5.591 -2.0663,11.258 -2.5,17c-0.3826,0.556 -0.8826,0.889 -1.5,1c-1,0 -2,0 -3,0c0.8581,-7.097 2.1914,-14.097 4,-21c0.3333,-0.667 0.6667,-1.333 1,-2z" fill="#000000"/>
  </g>
  <g id="svg_85">
   <path stroke="#e5e5e5" id="svg_86" d="m205.5,270.5c0.086,0.996 -0.248,1.829 -1,2.5c2.536,0.186 4.869,0.686 7,1.5c-2.687,-0.164 -5.354,0.003 -8,0.5c-2.828,2.248 -5.828,4.248 -9,6c-3,0.667 -6,0.667 -9,0c-5.319,-4.164 -11.319,-6.331 -18,-6.5c0.709,-0.904 1.709,-1.237 3,-1c3.629,-0.987 7.296,-0.821 11,0.5c2.005,2.845 4.671,4.678 8,5.5c3.075,-1.566 5.742,-3.733 8,-6.5c2.654,-0.941 5.321,-1.774 8,-2.5z" fill="#000000"/>
  </g>
  <g id="svg_87">
   <path stroke="#000000" id="svg_88" d="m246.5,303.5c-7.553,2.041 -15.219,3.874 -23,5.5c1,1 2,2 3,3c-0.594,0.464 -1.261,0.631 -2,0.5c-6.579,-5.618 -13.912,-9.618 -22,-12c2.357,0.163 4.69,-0.003 7,-0.5c10.359,-4.091 21.025,-7.258 32,-9.5c2,0.667 3.333,2 4,4c0.802,2.949 1.136,5.949 1,9z" fill="#000000"/>
  </g>
  <g id="svg_91">
   <path id="svg_92" d="m202.5,300.15757c8.088,2.382 15.421,6.382 22,12c1.531,1.425 1.198,2.091 -1,2c-4.667,-1.667 -9.333,-3.333 -14,-5c-11.493,-1.159 -23.159,-1.326 -35,-0.5c-5.893,2.232 -11.559,4.732 -17,7.5c-0.739,0.131 -1.406,-0.036 -2,-0.5c2.855,-2.031 5.522,-4.197 8,-6.5c11.585,-8.446 24.585,-11.446 39,-9z" fill="#ffffff"/>
  </g>
  <g id="svg_93">
   <path stroke="#000000" id="svg_94" d="m163.5,309.5c-2.478,2.303 -5.145,4.469 -8,6.5c0.594,0.464 1.261,0.631 2,0.5c-1.101,1.098 -2.434,1.265 -4,0.5c0.752,-0.671 1.086,-1.504 1,-2.5c0.453,-0.958 1.119,-1.792 2,-2.5c-8.439,-2.203 -16.773,-4.703 -25,-7.5c-0.676,1.102 -1.342,2.102 -2,3c0.025,-5.482 1.858,-10.149 5.5,-14c10.36,3.509 20.86,6.509 31.5,9c1.021,0.502 1.188,1.168 0.5,2c-1.771,0.804 -3.271,1.971 -4.5,3.5c0.556,0.383 0.889,0.883 1,1.5z" fill="#000000"/>
  </g>
  <g id="svg_95">
   <path stroke="#000000" id="svg_96" d="m304.5,295.5c2.712,0.547 4.212,2.213 4.5,5c2.274,23.432 -1.393,45.766 -11,67c-3.203,-15.405 -9.869,-29.071 -20,-41c-5.687,-6.186 -11.187,-12.519 -16.5,-19c13.604,-3.545 27.604,-7.045 42,-10.5c0.556,-0.383 0.889,-0.883 1,-1.5z" fill="#000000"/>
  </g>
  <g id="svg_97">
   <path stroke="#000000" id="svg_98" d="m154.5,314.5c-2.04,1.677 -4.04,3.344 -6,5c-5.806,5.136 -10.473,11.136 -14,18c-1.293,1.342 -2.126,3.009 -2.5,5c-0.724,-3.927 -1.891,-7.594 -3.5,-11c0,-2 0,-4 0,-6c0,-2 0,-4 0,-6c0.005,-4.034 0.338,-8.034 1,-12c0.658,-0.898 1.324,-1.898 2,-3c8.227,2.797 16.561,5.297 25,7.5c-0.881,0.708 -1.547,1.542 -2,2.5z" fill="#000000"/>
  </g>
  <g id="svg_99">
   <path stroke="#000000" id="svg_100" d="m246.5,303.5c1.28,7.204 1.28,14.538 0,22c-1.132,3.128 -1.965,6.462 -2.5,10c-0.608,-1.566 -1.442,-2.9 -2.5,-4c-3.152,-6.332 -7.319,-11.999 -12.5,-17c-1.758,2.373 -3.591,2.373 -5.5,0c2.198,0.091 2.531,-0.575 1,-2c0.739,0.131 1.406,-0.036 2,-0.5c-1,-1 -2,-2 -3,-3c7.781,-1.626 15.447,-3.459 23,-5.5z" fill="#000000"/>
  </g>
  <g id="svg_101">
   <path stroke="#000000" id="svg_102" d="m209.5,309.5c-11.338,-0.167 -22.672,0 -34,0.5c-0.165,1.117 -0.498,2.284 -1,3.5c1.09,1.503 2.257,1.836 3.5,1c9.433,2.626 18.933,5.126 28.5,7.5c0.857,0.689 1.523,1.522 2,2.5c5.347,1.404 10.68,1.738 16,1c0,2 0,4 0,6c-1.902,-1.011 -3.902,-1.178 -6,-0.5c-7.436,1.858 -14.769,4.025 -22,6.5c-3.742,-0.515 -7.409,-1.348 -11,-2.5c-7.383,-3.548 -14.883,-6.714 -22.5,-9.5c-2.118,0.783 -3.618,2.116 -4.5,4c-2.145,-2.933 -4.312,-5.933 -6.5,-9c-1.011,-0.837 -2.178,-1.17 -3.5,-1c1.96,-1.656 3.96,-3.323 6,-5c0.086,0.996 -0.248,1.829 -1,2.5c1.566,0.765 2.899,0.598 4,-0.5c5.441,-2.768 11.107,-5.268 17,-7.5c11.841,-0.826 23.507,-0.659 35,0.5z" fill="#000000"/>
  </g>
  <g id="svg_103">
   <path stroke="#000000" id="svg_104" d="m148.5,319.5c1.322,-0.17 2.489,0.163 3.5,1c2.188,3.067 4.355,6.067 6.5,9c1.502,3.563 2.502,7.23 3,11c0,2 0,4 0,6c0,1 0,2 0,3c-7.199,-2.01 -14.199,-4.51 -21,-7.5c-2.677,-0.814 -4.677,-2.314 -6,-4.5c3.527,-6.864 8.194,-12.864 14,-18z" fill="#000000"/>
  </g>
  <g id="svg_105">
   <path stroke="#000000" id="svg_106" d="m87.5,313.5c13.372,1.614 26.372,4.614 39,9c0.676,-1.102 1.342,-2.102 2,-3c0,2 0,4 0,6c-2.941,1.302 -5.275,3.302 -7,6c-0.86,-2.114 -2.527,-3.28 -5,-3.5c-9.956,-2.822 -19.9555,-5.322 -30,-7.5c0,-0.667 0,-1.333 0,-2c0.538,-1.617 0.8713,-3.284 1,-5z" fill="#000000"/>
  </g>
  <g id="svg_107">
   <path stroke="#000000" id="svg_108" d="m86.5,320.5c10.0445,2.178 20.044,4.678 30,7.5c2.473,0.22 4.14,1.386 5,3.5c-5.731,6.452 -11.231,13.118 -16.5,20c-4.843,7.37 -8.1759,15.37 -10,24c-7.8201,-17.586 -10.6534,-35.919 -8.5,-55z" fill="#000000"/>
  </g>
  <g id="svg_109">
   <path stroke="#000000" id="svg_110" d="m270.5,325.5c5.592,25.453 1.758,49.453 -11.5,72c0.038,-6.636 -1.295,-12.97 -4,-19c-5.853,-11.727 -12.687,-22.727 -20.5,-33c12.017,-6.466 24.017,-13.133 36,-20z" fill="#000000"/>
  </g>
  <g id="svg_111">
   <path stroke="#000000" id="svg_112" d="m270.5,325.5c-11.983,6.867 -23.983,13.534 -36,20c-1.946,-0.754 -2.779,-2.088 -2.5,-4c2.921,-1.877 5.754,-3.877 8.5,-6c0.929,-1.189 1.262,-2.522 1,-4c1.058,1.1 1.892,2.434 2.5,4c0.535,-3.538 1.368,-6.872 2.5,-10c-0.163,2.357 0.003,4.69 0.5,7c6.916,-4.3 13.916,-8.634 21,-13c1.122,1.907 1.955,3.907 2.5,6z" fill="#000000"/>
  </g>
  <g id="svg_113">
   <path stroke="#000000" id="svg_114" d="m224.5,331.5c0.317,4.202 -0.017,8.202 -1,12c0,-3.333 0,-6.667 0,-10c-7.168,2.477 -14.501,4.477 -22,6c1.884,4.804 3.884,9.637 6,14.5c-1.148,1.726 -2.315,1.559 -3.5,-0.5c-0.388,0.928 -1.055,1.595 -2,2c-4.916,-1.127 -9.75,-3.127 -14.5,-6c-2.282,-0.723 -4.616,-1.057 -7,-1c0.424,-2.854 1.424,-5.521 3,-8c-3.485,-1.575 -6.818,-3.409 -10,-5.5c-4.076,-0.476 -7.91,-1.642 -11.5,-3.5c-0.498,2.982 -0.665,5.982 -0.5,9c-0.498,-3.77 -1.498,-7.437 -3,-11c0.882,-1.884 2.382,-3.217 4.5,-4c7.617,2.786 15.117,5.952 22.5,9.5c3.591,1.152 7.258,1.985 11,2.5c7.231,-2.475 14.564,-4.642 22,-6.5c2.098,-0.678 4.098,-0.511 6,0.5z" fill="#000000"/>
  </g>
  <g id="svg_115">
   <path stroke="#000000" id="svg_116" d="m128.5,331.5c1.609,3.406 2.776,7.073 3.5,11c0.374,-1.991 1.207,-3.658 2.5,-5c1.323,2.186 3.323,3.686 6,4.5c6.801,2.99 13.801,5.49 21,7.5c0,-1 0,-2 0,-3c0.999,3.688 2.332,7.355 4,11c-1.912,2.157 -3.579,4.491 -5,7c0.214,-1.644 -0.12,-3.144 -1,-4.5c-8.852,-4.258 -17.852,-8.258 -27,-12c-3.514,-1.562 -7.181,-2.395 -11,-2.5c0,4 0,8 0,12c-1.317,-7.212 -1.15,-14.546 0.5,-22c2,-2.667 4,-2.667 6,0c0.49,-1.293 0.657,-2.627 0.5,-4z" fill="#000000"/>
  </g>
  <g id="svg_117">
   <path stroke="#000000" id="svg_118" d="m223.5,343.5c-1.338,11.183 -5.505,21.183 -12.5,30c-0.065,-4.518 -0.731,-8.851 -2,-13c-3.381,3.875 -6.547,7.875 -9.5,12c-3.332,2.5 -6.166,5.5 -8.5,9c-2.88,-9.437 -7.547,-17.77 -14,-25c-1.044,1.123 -1.71,2.456 -2,4c-0.333,3.667 -0.667,7.333 -1,11c-3.483,-4.307 -6.317,-8.973 -8.5,-14c-1.668,-3.645 -3.001,-7.312 -4,-11c0,-2 0,-4 0,-6c-0.165,-3.018 0.002,-6.018 0.5,-9c3.59,1.858 7.424,3.024 11.5,3.5c3.182,2.091 6.515,3.925 10,5.5c-1.576,2.479 -2.576,5.146 -3,8c2.384,-0.057 4.718,0.277 7,1c4.75,2.873 9.584,4.873 14.5,6c0.945,-0.405 1.612,-1.072 2,-2c1.185,2.059 2.352,2.226 3.5,0.5c-2.116,-4.863 -4.116,-9.696 -6,-14.5c7.499,-1.523 14.832,-3.523 22,-6c0,3.333 0,6.667 0,10z" fill="#000000"/>
  </g>
  <g id="svg_119">
   <path stroke="#000000" id="svg_120" d="m160.5,364.5c-1.605,2.878 -2.939,5.878 -4,9c-8.19,13.432 -11.69,28.099 -10.5,44c-14.113,-17.489 -22.279,-37.489 -24.5,-60c0,-4 0,-8 0,-12c3.819,0.105 7.486,0.938 11,2.5c9.148,3.742 18.148,7.742 27,12c0.88,1.356 1.214,2.856 1,4.5z" fill="#000000"/>
  </g>
  <g id="svg_121">
   <path stroke="#000000" id="svg_122" d="m199.5,372.5c0.671,1.347 0.671,2.514 0,3.5c1.5,0.833 2.667,2 3.5,3.5c0.333,-0.667 0.667,-1.333 1,-2c0.667,1.333 1.667,2.333 3,3c2.461,-0.718 4.961,-1.385 7.5,-2c0.322,1.409 1.322,2.909 3,4.5c4.913,0.554 9.413,2.054 13.5,4.5c0.333,-0.667 0.667,-1.333 1,-2c1.306,1.412 2.14,3.079 2.5,5c-2.151,4.969 -4.817,9.636 -8,14c0.157,-1.373 -0.01,-2.707 -0.5,-4c-0.414,0.457 -0.914,0.791 -1.5,1c-3.923,-1.151 -7.923,-1.985 -12,-2.5c-4.071,-2.203 -8.404,-3.536 -13,-4c-0.667,-1.333 -1.667,-2.333 -3,-3c-9.903,0.023 -19.07,-2.477 -27.5,-7.5c-1.03,0.336 -1.53,1.003 -1.5,2c-3.429,-4.519 -7.096,-8.852 -11,-13c1.061,-3.122 2.395,-6.122 4,-9c1.421,-2.509 3.088,-4.843 5,-7c2.183,5.027 5.017,9.693 8.5,14c0.333,-3.667 0.667,-7.333 1,-11c0.29,-1.544 0.956,-2.877 2,-4c6.453,7.23 11.12,15.563 14,25c2.334,-3.5 5.168,-6.5 8.5,-9z" fill="#000000"/>
  </g>
  <g id="svg_123">
   <path stroke="#000000" id="svg_124" d="m226.5,404.5c-2.308,4.295 -4.974,8.295 -8,12c1.416,-2.36 1.083,-4.36 -1,-6c-6.972,-1.072 -13.472,-3.405 -19.5,-7c-1.016,1.134 -1.683,0.801 -2,-1c-0.333,0.333 -0.667,0.667 -1,1c-4.897,-1.067 -9.73,-2.4 -14.5,-4c-0.929,1.189 -1.262,2.522 -1,4c-4.735,-5.132 -8.735,-10.799 -12,-17c-0.03,-0.997 0.47,-1.664 1.5,-2c8.43,5.023 17.597,7.523 27.5,7.5c1.333,0.667 2.333,1.667 3,3c4.596,0.464 8.929,1.797 13,4c4.077,0.515 8.077,1.349 12,2.5c0.586,-0.209 1.086,-0.543 1.5,-1c0.49,1.293 0.657,2.627 0.5,4z" fill="#000000"/>
  </g>
  <g id="svg_125">
   <path stroke="#000000" id="svg_126" d="m218.5,416.5c-5.58,7.753 -11.746,15.087 -18.5,22c-5.433,-12.573 -12.266,-24.24 -20.5,-35c-0.262,-1.478 0.071,-2.811 1,-4c4.77,1.6 9.603,2.933 14.5,4c0.333,-0.333 0.667,-0.667 1,-1c0.317,1.801 0.984,2.134 2,1c6.028,3.595 12.528,5.928 19.5,7c2.083,1.64 2.416,3.64 1,6z" fill="#000000"/>
  </g>
 </g>
</svg>