<svg width="753" height="666" xmlns="http://www.w3.org/2000/svg" clip-rule="evenodd" version="1.1">

 <g>
  <title>Layer 1</title>
  <g id="svg_13">
   <g id="svg_1">
    <path id="svg_2" opacity="0.992" d="m577.64969,93.65568c3.78775,0 7.57814,0 11.36588,0c22.68155,2.83677 39.73037,14.11455 51.14648,33.83333c3.51021,7.02491 5.84682,14.42595 7.00456,22.20312c0,5.02213 0,10.04427 0,15.0664c-3.60536,23.46553 -16.11841,40.33805 -37.53385,50.61783c-22.61282,9.26531 -43.93575,6.97442 -63.96614,-6.87239c-18.02418,-14.15925 -26.5248,-32.79401 -25.50716,-55.90429c2.84676,-26.27079 16.37216,-44.55315 40.57356,-54.847c2.86262,-0.97916 5.77017,-1.86024 8.72265,-2.64323c2.78068,-0.40741 5.51378,-0.89201 8.19401,-1.45378z" fill="#000000"/>
   </g>
   <g id="svg_3">
    <path id="svg_4" opacity="0.995" d="m105.83335,164.49421c0,-5.11015 0,-10.22057 0,-15.33073c2.18717,-17.10169 9.85253,-31.15492 22.99609,-42.1595c10.5938,-7.87962 22.57635,-12.1088 35.94791,-12.6875c83.34973,-0.17622 166.69972,-0.17622 250.04944,0c15.51047,0.58868 29.51958,5.25839 42.02734,14.00911c16.97746,13.66787 24.86221,31.59769 23.6569,53.78971c-2.96835,25.49923 -16.13955,43.253 -39.51627,53.26106c-8.59314,3.16342 -17.49289,4.83764 -26.69661,5.02213c-81.23514,0.1763 -162.47055,0.1763 -243.70569,0c-11.65743,-0.1274 -22.67071,-2.77063 -33.04036,-7.92969c-15.774,-8.90451 -25.8623,-22.25281 -30.26497,-40.04492c-0.44096,-2.68658 -0.92556,-5.32981 -1.45378,-7.92969z" fill="#000000"/>
   </g>
   <g id="svg_5">
    <path id="svg_6" opacity="0.992" d="m105.83335,345.02674c0,-5.02213 0,-10.04427 0,-15.0664c4.36849,-27.31936 19.69922,-45.24917 45.99218,-53.78971c24.66661,-5.90947 45.9446,-0.05049 63.83397,17.57747c13.16672,14.38947 18.80552,31.39442 16.91666,51.01432c-3.31382,23.19962 -15.42853,39.98412 -36.3444,50.35351c-15.58712,6.9094 -31.53478,7.7896 -47.84244,2.64323c-24.2728,-9.26716 -38.45811,-26.84463 -42.55598,-52.73241z" fill="#000000"/>
   </g>
   <g id="svg_7">
    <path id="svg_8" opacity="0.996" d="m647.16661,329.96033c0,4.93412 0,9.86797 0,14.80208c-3.87233,24.98908 -17.52989,42.12514 -40.97005,51.4108c-6.4997,2.28639 -13.195,3.69523 -20.08854,4.22917c-84.84764,0.1771 -169.69529,0.1771 -254.54293,0c-21.26451,-1.59387 -37.78469,-11.06456 -49.56054,-28.41471c-10.82217,-18.79574 -12.58441,-38.44365 -5.28646,-58.944c7.92784,-19.44518 22.15713,-31.73619 42.68814,-36.87304c4.17921,-0.93147 8.40838,-1.46012 12.6875,-1.58594c82.91016,-0.1763 165.81767,-0.1763 248.72783,0c12.09277,0.40521 23.54588,3.26862 34.36197,8.59049c18.26471,10.34586 28.9275,25.94091 31.98307,46.78515z" fill="#000000"/>
   </g>
   <g id="svg_9">
    <path id="svg_10" opacity="0.992" d="m647.16661,501.24156c0,5.02213 0,10.04427 0,15.0664c-3.61594,23.23662 -15.95189,40.02113 -37.0052,50.35351c-6.80103,2.83883 -13.84788,4.73402 -21.14583,5.68294c-3.61329,0 -7.22394,0 -10.83724,0c-25.80584,-3.30139 -43.82209,-16.86909 -54.05403,-40.70572c-6.61336,-18.76957 -5.29174,-36.91798 3.96484,-54.45051c9.4469,-15.77479 23.14675,-25.95122 41.10221,-30.52929c25.96179,-4.72081 47.50411,2.8124 64.62694,22.59961c7.30324,9.43897 11.75444,20.10175 13.34831,31.98307z" fill="#000000"/>
   </g>
   <g id="svg_11">
    <path id="svg_12" opacity="0.996" d="m419.05596,572.34441c-84.58332,0 -169.16664,0 -253.74996,0c-10.28745,-0.8194 -19.97937,-3.68202 -29.07552,-8.59049c-15.05588,-8.9764 -24.70367,-22.06039 -28.94336,-39.25195c-0.37271,-2.69874 -0.8573,-5.34197 -1.45378,-7.92969c0,-5.10936 0,-10.22137 0,-15.33073c2.08752,-16.64705 9.40046,-30.43414 21.9388,-41.36653c10.85918,-8.32881 23.19407,-12.8223 37.0052,-13.48047c83.34973,-0.1771 166.69972,-0.1771 250.04944,0c16.65763,0.38062 31.45971,5.66708 44.40624,15.85937c15.42588,13.65756 22.52031,30.88084 21.27799,51.67512c-2.62208,24.52388 -15.00032,42.01412 -37.13736,52.46809c-7.8451,3.10051 -15.95189,5.08293 -24.3177,5.94726z" fill="#000000"/>
   </g>
  </g>
 </g>
</svg>