<svg width="60" height="99.99999999999999" xmlns="http://www.w3.org/2000/svg">
 <g>
  <title>Layer 1</title>
  <g id="svg_5">
   <path d="m42.6252,66.37406c0.0345,-0.0621 7.8312,-11.98484 4.58142,-17.02164c0.44848,0.88317 -11.17757,7.71045 -15.01037,9.60443c0.29324,-0.14489 17.06304,-10.00461 15.5658,-12.69551a64.4435,64.4435 0 0 0 -14.26175,6.94803l-0.069,0a40.78432,40.78432 0 0 1 13.02324,-7.00668c4.91261,-4.42618 9.71827,-19.89193 7.49311,-24.02832a20.35421,20.35421 0 0 1 -8.96965,3.42572c3.05658,-1.22815 9.51818,-3.20148 8.36593,-7.22402c0,0 -5.24035,3.44987 -7.80705,3.00483c8.92825,-3.957 7.86569,-4.48483 7.7829,-6.35465c-0.21734,-4.80566 -4.48483,-15.17941 -9.38709,-13.04394c-9.47678,4.11224 -15.41745,11.10167 -7.90709,14.70333c-4.59177,-0.75552 -5.88202,-2.58395 -5.57498,-3.05313c-6.3926,7.18262 -11.6916,8.08994 -1.63869,13.29233a10.24955,10.24955 0 0 1 -6.71344,-3.10488s-20.06097,17.10099 -2.68055,25.72565a17.96345,17.96345 0 0 1 -7.24472,-5.04025a12.15043,12.15043 0 0 0 -4.67802,4.62627c1.31095,1.48344 1.3489,2.74264 3.9432,4.71597l-0.069,0.0276a10.13916,10.13916 0 0 1 -4.13639,-3.94665c-0.41398,1.93193 0.54508,4.21574 4.13984,6.97563a6.65824,6.65824 0 0 1 -4.48483,-2.41491a17.83926,17.83926 0 0 0 -1.37995,7.6518a39.15253,39.15253 0 0 1 4.05359,4.38133a1.66629,1.66629 0 0 0 0.78312,0.90042l-0.06555,0.0276a2.06992,2.06992 0 0 1 -1.00391,-0.86937c-0.68997,-0.99356 -2.63225,-2.06992 -3.68446,-3.42572a13.58557,13.58557 0 0 0 4.87466,9.0766a3.29462,3.29462 0 0 1 -2.48045,-0.48643a8.27968,8.27968 0 0 0 8.24518,7.15502l0.43468,0c-0.57958,4.48483 -1.2661,15.84869 3.28427,19.25025c0.45538,0.34499 2.02507,0.05175 1.79738,-0.34499c-2.32521,-4.08809 -2.95654,-6.93423 -2.34591,-19.03636c0.48298,-0.0345 0.58993,-0.0483 0.95906,-0.0966c15.05867,-3.67411 20.81994,-9.62858 22.26544,-12.29877l0.00003,0.00001zm-13.19229,6.23391l-0.05865,-0.0207c6.3719,-3.67066 8.52807,-5.76473 11.38456,-7.40341l0.069,0a48.92255,48.92255 0 0 1 -11.39491,7.42411zm16.66975,-16.40066l0.0621,0.0207a62.34253,62.34253 0 0 1 -10.17366,6.53405l-0.05865,-0.0207c4.83671,-2.84959 6.83418,-5.01266 10.17021,-6.53405zm-6.06831,7.8105l0.05865,0.0207a39.71831,39.71831 0 0 1 -11.87444,6.31326l-0.03795,-0.03105c6.23736,-2.23896 7.40686,-4.49863 11.85374,-6.30291zm-28.15091,-17.39423l0.07935,0c1.63179,1.43169 1.97677,3.30152 6.3719,5.00921l-0.05865,0.0345c-4.16744,-1.2523 -6.36845,-3.34292 -6.39605,-5.0437l0.00345,0l0,-0.00001zm-4.57797,19.71254s0,-0.02415 0.03795,-0.0276a0.11385,0.11385 0 0 1 0.05865,0l0.0207,0a0.50023,0.50023 0 0 1 0.03795,0.0966a18.94322,18.94322 0 0 0 5.45769,5.91652l-0.06555,0.03105a9.31464,9.31464 0 0 1 -5.54738,-6.01657l-0.00001,0zm6.55475,10.93263s-0.14834,-0.03795 -0.39328,-0.11385a6.04762,6.04762 0 0 1 -4.25024,-4.28473l0.0828,0c1.10396,2.09407 2.19756,2.46665 4.39513,4.19159c0.14834,0.1173 0.22424,0.18974 0.22424,0.18974l-0.05865,0.01725z" fill="#000000" id="svg_1"/>
   <g fill="#fff" id="svg_2">
    <path d="m44.91246,34.55249a5.1748,5.1748 0 1 1 -1.51449,-3.66031a5.1748,5.1748 0 0 1 1.51449,3.66031z" id="svg_3" fill="#ffffff"/>
    <path d="m33.61415,34.55249a5.1748,5.1748 0 1 1 -1.51449,-3.66031a5.1748,5.1748 0 0 1 1.51449,3.66031z" id="svg_4" fill="#ffffff"/>
   </g>
  </g>
 </g>

</svg>