<svg width="236" height="200" xmlns="http://www.w3.org/2000/svg" clip-rule="evenodd" version="1.1">

 <g>
  <title>Layer 1</title>
  <g id="svg_13">
   <g id="svg_1">
    <path id="svg_2" opacity="0.983" d="m59.23305,12.28813c6.13983,0 12.27966,0 18.41949,0c3.75565,1.88422 7.26412,4.22319 10.52542,7.01695c-1.75424,1.60259 -3.65469,3.06448 -5.70127,4.38559c-0.68661,1.59504 -0.24805,2.7645 1.31568,3.50847c17.2952,-12.24206 36.00747,-14.72723 56.13559,-7.45551c4.5654,2.00123 8.80539,4.48637 12.71822,7.45551c1.4069,-0.49794 1.99106,-1.37506 1.75424,-2.63136c-2.45155,-1.57285 -4.64434,-3.47323 -6.57839,-5.70127c2.93747,-2.63534 6.15386,-4.82813 9.64831,-6.57839c6.13983,0 12.27966,0 18.41949,0c26.21532,12.81172 41.41842,33.86257 45.61017,63.15254c0,5.55506 0,11.1102 0,16.66525c-1.46303,14.45053 -7.31078,26.87667 -17.54237,37.27754c-14.88207,11.89811 -28.76949,10.87452 -41.66314,-3.06992c-2.10947,-3.105 -3.71723,-6.46787 -4.82415,-10.08686c4.15491,-3.27165 8.10194,-6.92661 11.8411,-10.96398c1.47531,-2.95063 2.93747,-5.87477 4.38559,-8.77119c1.71564,-13.44421 1.71564,-26.89333 0,-40.34746c-0.62977,-0.83379 -1.36041,-0.97992 -2.1928,-0.43856c-0.94115,1.15157 -1.52619,2.46725 -1.75424,3.94703c0.98939,10.79435 1.13499,21.61212 0.43856,32.45339c-1.64723,9.54305 -6.90994,16.26704 -15.78814,20.17373c-0.43856,-0.14648 -0.87712,-0.29208 -1.31568,-0.43856c1.80774,-4.78468 3.56198,-9.60883 5.26271,-14.47246c-1.05693,-1.43637 -2.22613,-1.72871 -3.50847,-0.87712c-7.09764,21.4973 -16.30739,41.96311 -27.62924,61.39831c-6.15299,9.55094 -13.6085,17.88357 -22.36653,24.99788c-3.45664,1.87616 -6.96511,3.48392 -10.52542,4.82415c-5.55506,0 -11.1102,0 -16.66525,0c-7.36622,-2.95589 -14.09082,-7.0494 -20.17373,-12.27966c-0.50189,-1.53934 -1.23279,-3.0015 -2.1928,-4.38559c-2.95159,-3.67776 -6.02151,-7.18623 -9.20975,-10.52542c-4.27543,-6.21175 -7.63777,-12.93662 -10.08686,-20.17373c-0.58478,-5.55479 -0.58478,-11.11046 0,-16.66525c4.22982,-8.4677 10.80821,-10.95258 19.73517,-7.45551c2.51137,1.5104 4.85029,3.11816 7.01695,4.82415c-0.92536,3.31112 -2.09482,6.52752 -3.50847,9.64831c-1.79502,-1.56039 -3.69539,-3.02255 -5.70127,-4.38559c-2.60118,1.7402 -2.45506,3.49444 0.43856,5.26271c11.80453,9.47376 23.64563,18.82998 35.52331,28.0678c0.89615,-0.74906 1.62714,-1.62618 2.1928,-2.63136c-3.77143,-2.89274 -7.27991,-6.10913 -10.52542,-9.64831c2.92493,-8.7782 5.84863,-17.54939 8.77119,-26.31356c27.54065,-2.54277 42.74375,-17.60026 45.61017,-45.17161c-2.7445,-23.92087 -15.90128,-38.2472 -39.47034,-42.97881c-21.70649,-1.21332 -37.05607,7.99643 -46.04873,27.62924c-6.25219,20.92033 -0.98948,38.17036 15.78814,51.75c0.53083,2.37085 -0.20007,4.12509 -2.1928,5.26271c-15.80612,-11.6955 -26.91623,-8.18703 -33.33051,10.52542c-7.92774,-8.51682 -13.19045,-18.45808 -15.78814,-29.82203c0,-9.64831 0,-19.29661 0,-28.94492c6.09646,-25.97166 21.00752,-44.97593 44.73305,-57.01271zm30.69915,108.76271c-2.92256,8.76417 -5.84626,17.53536 -8.77119,26.31356c3.24551,3.53917 6.75399,6.75557 10.52542,9.64831c-0.56565,1.00518 -1.29664,1.8823 -2.1928,2.63136c-11.87768,-9.23781 -23.71878,-18.59404 -35.52331,-28.0678c-2.89361,-1.76827 -3.03974,-3.52251 -0.43856,-5.26271c2.00588,1.36304 3.90625,2.8252 5.70127,4.38559c4.34753,3.46111 8.73312,6.96958 13.15678,10.52542c3.4947,-6.5398 6.56462,-13.26467 9.20975,-20.17373c2.59153,-0.15613 5.36902,-0.15613 8.33263,0z" fill="#000000"/>
   </g>
   <g id="svg_3">
    <path stroke="#ffffff" id="svg_4" opacity="0.987" d="m90.12638,121.24502c-2.96361,-0.15613 -5.74109,-0.15613 -8.33263,0c-2.64513,6.90906 -5.71504,13.63393 -9.20975,20.17373c-4.42366,-3.55584 -8.80925,-7.06431 -13.15678,-10.52542c1.41365,-3.12079 2.58311,-6.33718 3.50847,-9.64831c0.64389,-1.05956 0.93624,-2.22876 0.87712,-3.50847c1.99273,-1.13762 2.72363,-2.89186 2.1928,-5.26271c-16.77761,-13.57964 -22.04033,-30.82967 -15.78814,-51.75c8.99266,-19.63281 24.34224,-28.84256 46.04873,-27.62924c23.56906,4.73162 36.72583,19.05795 39.47034,42.97881c-2.86642,27.57135 -18.06952,42.62884 -45.61017,45.17161z" fill="#020304"/>
   </g>
   <g id="svg_5">
    <path id="svg_6" d="m84.86367,48.44417c16.11302,-1.23226 27.36961,5.49225 33.76907,20.17373c2.7445,17.46563 -4.12597,29.30673 -20.61229,35.52331c-18.2103,2.22174 -29.75906,-5.52594 -34.64619,-23.24364c-0.73915,-16.06697 6.42393,-26.88483 21.48941,-32.45339z" fill="#f9f9f9"/>
   </g>
   <g id="svg_7">
    <path id="svg_8" d="m87.49502,61.60095c15.58377,0.48733 20.99296,8.08905 16.22669,22.80508c-6.03037,7.5691 -13.19344,8.88477 -21.48941,3.94703c-4.97089,-4.66531 -6.579,-10.36658 -4.82415,-17.10381c2.1378,-4.62575 5.50006,-7.84188 10.08686,-9.64831z" fill="#000000"/>
   </g>
   <g id="svg_9">
    <path id="svg_10" d="m147.13909,69.49502c5.39603,-0.95764 9.92723,0.50426 13.59534,4.38559c0.80256,2.12263 0.07192,3.29218 -2.1928,3.50847c-1.86914,-1.28331 -3.91633,-2.16043 -6.13983,-2.63136c-2.77959,1.30831 -5.70303,2.18543 -8.77119,2.63136c-0.14034,-1.4904 0.00526,-2.95229 0.43856,-4.38559c1.20692,-1.05702 2.22964,-2.22648 3.06992,-3.50847z" fill="#ffffff"/>
   </g>
   <g id="svg_11">
    <path stroke="#ffffff" id="svg_12" opacity="0.951" d="m46.27045,159.83824c3.18824,3.33919 6.25815,6.84767 9.20975,10.52542c0.96001,1.38409 1.69091,2.84625 2.1928,4.38559c-0.20919,2.32261 -1.37866,3.93125 -3.50847,4.82415c-7.48138,2.45155 -11.86698,-0.17981 -13.15678,-7.89407c1.00869,-4.36542 2.76292,-8.31245 5.26271,-11.8411z" fill="#000000"/>
   </g>
  </g>
 </g>
</svg>