<svg height="512" width="512" xmlns="http://www.w3.org/2000/svg"><path d="m498.0776672 206.9958191c-5.7255859 15.1022797-25.9035339 21.7076111-39.4497681 6.8805389-42.6947327-49.2796631-126.3652954-49.7796936-149.6228943 24.6613159-17.7734375 53.5591583 26.5077515 109.5618744 104.7848511 102.4774933 17.1747131-1.3561707 29.3148193 14.0282593 23.9190979 30.9689026l-38.9351196 106.4074707c-9.8706665 26.1786194-35.2270813 40.289978-65.2121887 30.4806519l-298.2478981-108.7148438c-26.8551111-9.4820556-41.5688214-38.7431945-32.7587814-65.0342407l110.4639396-301.8997078c11.9117889-26.9347801 32.4677582-39.1120567 65.2112122-30.4826012l298.2089844 108.7022171c26.9173584 9.5365143 41.6023865 38.7742996 32.7991638 65.0478439zm-56.9206237 53.1053772c0-40.2236481-43.8435059-65.4999084-78.7288818-45.388092s-34.885376 70.6643677 0 90.7761841 78.7288818-5.1644593 78.7288818-45.3880921z"/></svg>