<svg width="300" height="100" xmlns="http://www.w3.org/2000/svg">
 <g>
  <title>Layer 1</title>
  <g id="svg_3">
   <path fill="#070707" d="m31.71599,69.49231c-1.64258,-0.26193 -5.85062,-1.31455 -9.33406,-2.26681l-6.34755,-1.77722l3.25578,-5.98281l3.25333,-5.98281l-2.62911,-3.25578c-3.716,-4.60216 -8.51399,-14.69264 -8.54582,-17.94352c-0.03427,-7.59601 9.8261,-18.60692 21.9239,-24.52363c8.31571,-4.07585 14.92275,-4.17377 23.20663,-0.29375l6.24474,2.92286l1.80904,-2.59483c0.98408,-1.41492 1.80659,-3.28761 1.80659,-4.11012s0.82251,-1.54466 1.80904,-1.54466s1.80659,0.26193 1.80659,0.55813c0,0.7246 -7.26309,19.06469 -7.7233,19.5249c-0.19828,0.19584 -2.17134,-0.72215 -4.40632,-2.0367c-6.31083,-3.716 -14.23242,-6.18109 -20.37924,-6.3451c-14.29852,-0.3623 -19.26297,13.61064 -9.17005,25.83574l3.54954,4.3084l9.69636,-7.85794c10.88117,-8.77593 12.12963,-8.97421 20.6118,-3.12115c9.5299,6.57276 9.69391,16.56532 0.48959,27.0181c-8.1517,9.30224 -16.53105,11.8677 -30.92994,9.46625l0.00245,0.00245zm24.39144,-10.02438c4.7319,-3.71355 4.40387,-10.58497 -0.7246,-16.04146c-6.44302,-6.83714 -8.44545,-6.54094 -19.78684,2.92531c-11.27529,9.40015 -11.34138,9.04031 2.13707,13.34626c8.90567,2.89104 14.49435,2.79312 18.37436,-0.23011zm91.57807,36.22242c-3.22396,-1.18236 -11.90197,-4.76617 -19.32907,-7.98768c-20.05122,-8.7441 -22.87861,-8.90812 -28.86141,-1.64258c-1.38065,1.67685 -2.89104,2.72702 -3.31943,2.30108c-1.28273,-1.28273 2.53119,-7.42955 7.13335,-11.47113c3.74537,-3.28761 4.99383,-3.74782 9.13822,-3.28761c2.62911,0.29375 11.37321,3.3537 19.42454,6.77105c18.17853,7.7233 23.50283,9.36833 30.44034,9.36833c8.44545,0 12.78568,-5.91671 10.1223,-13.77221c-0.65605,-1.97305 -0.46022,-2.63155 0.85678,-2.63155c2.46264,0 3.71355,9.20432 1.93878,14.4968c-0.75887,2.26681 -2.95958,5.48832 -4.89836,7.09908c-2.89349,2.43327 -4.73435,2.95958 -10.15902,2.92531c-3.64746,-0.03182 -9.26797,-0.98408 -12.48948,-2.16889l0.00245,0zm-46.84166,-28.10255c-7.46137,-3.48589 -14.2006,-10.12475 -18.08061,-17.88233c-6.21047,-12.42583 -4.30596,-20.37924 7.46382,-31.12822c9.89219,-9.04031 17.98024,-12.55802 28.86141,-12.55802c7.85305,0 9.5299,0.42839 14.62409,3.54954c12.06353,7.46382 15.05494,21.69624 7.79185,37.20895c-8.51399,18.2128 -26.49424,27.38285 -40.66057,20.80763l0,0.00245zm24.9814,-8.64618c5.58624,-2.7613 9.43443,-15.51515 7.85549,-26.10012c-1.97305,-13.04761 -19.62282,-21.95817 -32.57496,-16.43314c-13.31199,5.6866 -13.51027,20.83946 -0.42594,34.47947c9.13578,9.56662 16.99372,12.06353 25.14541,8.05378zm25.3437,11.04518c0,-0.56058 2.06852,-1.54466 4.63398,-2.17134l4.63398,-1.15054l0.98653,-16.69507c1.08444,-18.47473 0.29375,-36.65326 -1.70867,-39.08408c-0.7246,-0.85678 -2.92531,-1.90941 -4.93019,-2.36717c-8.1517,-1.80904 -2.72947,-3.0575 13.08188,-3.0575c15.81135,0 20.83946,1.15054 13.31199,3.0575c-6.47485,1.61076 -6.50912,1.70867 -6.50912,28.07072c0,14.62654 0.52631,25.6399 1.28273,27.05237c1.05262,1.97305 2.62911,2.399 8.67801,2.399c12.48948,0 16.79543,-2.95713 20.18341,-13.9044c1.01835,-3.28516 3.64746,-2.69275 2.72702,0.62668c-0.42839,1.54221 -1.11627,6.24229 -1.54466,10.51642l-0.78824,7.72575l-27.02055,0c-14.8591,0 -27.0181,-0.46022 -27.0181,-1.01835z" id="svg_1"/>
   <path fill="#070707" d="m212.53678,69.19611c0,-0.98408 0.9547,-1.97061 2.53119,-2.72702c2.10524,-0.98653 3.48344,-3.0575 8.47972,-12.81995c7.92159,-15.44661 20.41351,-41.97512 21.59588,-45.95305c0.92043,-3.02323 1.11872,-3.18724 4.53606,-3.58136c1.97305,-0.23011 3.61563,-0.3623 3.64746,-0.2962c0.03427,0.06609 2.76374,6.04645 6.08317,13.31199c3.28761,7.26309 9.89464,21.06957 14.69264,30.668c8.02195,16.13938 8.91056,17.58612 11.60332,18.89823c1.64503,0.79069 2.92531,2.00732 2.92531,2.72947c0,1.15054 -1.41247,1.28273 -13.57392,1.28273c-12.19572,0 -13.57637,-0.13219 -13.57637,-1.31455c0,-0.78824 1.05262,-1.64258 2.72702,-2.20316c1.54711,-0.49204 2.72947,-1.41247 2.72947,-2.1028c0,-0.6585 -1.61076,-4.99628 -3.58381,-9.63026l-3.58136,-8.4479l-27.15274,0l-2.59483,5.71843c-4.86654,10.71716 -4.96446,13.24834 -0.42839,14.46253c2.26926,0.62423 2.89349,1.11872 2.62911,2.13707c-0.29375,1.18481 -1.47857,1.34638 -10.02438,1.34638c-9.17249,0.06854 -9.66453,0 -9.66453,-1.47857zm44.50631,-26.59216c0.46022,-0.82007 -9.76245,-23.14054 -10.71471,-23.37065c-0.69032,-0.19584 -11.27529,21.63015 -11.27529,23.27273c0,0.82251 21.49796,0.92043 21.99,0.09792z" id="svg_2"/>
  </g>
 </g>

</svg>