<svg fill="none" height="15" viewBox="0 0 15 15" width="15" xmlns="http://www.w3.org/2000/svg"><path clip-rule="evenodd" d="m13.2829 1.94409c.9254 1.48102.7631 3.33238-.2701 4.62167.85 1.8073.2334 4.00554-1.5024 5.09024l-4.24028 2.6496c-1.87345 1.1707-4.3412.601-5.51187-1.2725-.925452-1.481-.76306-3.33239.27008-4.62165-.85004-1.8073-.23345-4.00558 1.50243-5.09028l4.24024-2.649594c1.87346-1.170665 4.3412-.600941 5.5119 1.272514zm-4.98198-.42447c1.40509-.877995 3.25588-.4507 4.13388.95439.6297 1.00767.5882 2.24544-.0047 3.18862-.6255-.73271-1.4778-1.19424-2.3854-1.34501l.7244-.45268-.5299-.84804-5.08832 3.17951.52992.84805 2.12011-1.32479c1.40509-.878 3.25589-.45068 4.13389.95441.878 1.4051.4507 3.25591-.9544 4.13392l-4.2402 2.6496c-1.40509.878-3.2559.4507-4.1339-.9544-.62965-1.0077-.58816-2.2454.00473-3.18862.6255.73272 1.47782 1.19422 2.38548 1.34502l-.72429.4526.52992.848 5.08829-3.17949-.52992-.84804-2.12028 1.32489c-1.40509.87804-3.25594.45065-4.13394-.95444-.87799-1.40509-.4507-3.2559.95439-4.1339z" fill="#000" fill-rule="evenodd"/></svg>