<svg width="200" height="100" xmlns="http://www.w3.org/2000/svg" clip-rule="evenodd" version="1.1">

 <g>
  <title>Layer 1</title>
  <g id="svg_77">
   <g id="svg_3">
    <path id="svg_4" d="m90.41106,24.05408c5.28379,-5.33935 10.56741,-10.6787 15.8512,-16.01806c0.22242,0 0.445,0 0.66742,0c0.16452,-0.74584 0.22008,-1.5245 0.16685,-2.33597c-3.00339,0 -6.00677,0 -9.01016,0c-0.05323,0.81146 0.00234,1.59013 0.16685,2.33597c1.61298,0 3.2258,0 4.83879,0c-11.59057,11.67399 -23.21484,23.32613 -34.87264,34.95607c0.52843,0.52843 1.05669,1.05669 1.58512,1.58512c2.2804,-2.2804 4.56064,-4.56064 6.84104,-6.84104c0.08343,3.00288 0.11129,6.00627 0.08343,9.01016c-1.05919,1.05919 -2.06032,2.17161 -3.00339,3.3371c0.99863,1.08222 2.02762,2.13891 3.08681,3.17024c0.08343,3.00288 0.11129,6.00627 0.08343,9.01016c0.02186,0.12331 -0.00601,0.2346 -0.08343,0.33371c-2.33597,-2.33597 -4.67193,-4.67193 -7.0079,-7.0079c-0.52843,0.52843 -1.05669,1.05669 -1.58512,1.58512c6.0902,6.0902 12.1804,12.1804 18.2706,18.2706c0.52843,-0.52843 1.05669,-1.05669 1.58512,-1.58512c-2.14926,-2.06333 -4.15151,-4.14901 -6.00677,-6.25705c2.20749,0.78889 4.48773,1.03917 6.84104,0.75085c0.72365,-0.17853 1.44663,-0.28983 2.16911,-0.33371c7.25301,7.64261 14.56692,15.23451 21.9414,22.77567c0.13015,2.66851 0.21357,5.33818 0.25028,8.00903c-6.67436,0.02786 -13.34855,0 -20.02257,-0.08343c-11.71003,-11.51548 -23.44543,-23.00059 -35.20635,-34.45551c-11.6231,11.40052 -23.19164,22.85793 -34.70579,34.37208c-6.72975,0 -13.45962,0 -20.18942,0c0,-2.66968 0,-5.33935 0,-8.00903c13.3704,-13.45383 26.77435,-26.88564 40.21199,-40.29542c-13.37141,-13.76084 -26.80316,-27.47063 -40.29542,-41.1297c-0.08341,-2.66909 -0.11123,-5.33877 -0.08343,-8.00903c6.73004,-0.02781 13.45984,0 20.18942,0.08343c11.54768,11.63116 23.17195,23.17195 34.87264,34.62236c11.81649,-11.51047 23.60761,-23.05133 35.37321,-34.62236c6.61829,-0.08343 13.23692,-0.11124 19.85572,-0.08343c0.02786,2.39223 0,4.78381 -0.08343,7.17475c-4.86115,5.25075 -9.78336,10.45111 -14.76665,15.60092c-2.66918,0.08343 -5.33885,0.11129 -8.00903,0.08343z" fill="#000000"/>
   </g>
   <g id="svg_9">
    <path id="svg_10" d="m20.16521,5.86691c0.23727,0.03481 0.45968,0.11823 0.66742,0.25028c13.37725,13.68309 26.83692,27.28175 40.37885,40.79599c0.26847,0.23326 0.40746,0.51141 0.41714,0.83427c-0.4475,0.47554 -0.92037,0.92037 -1.41827,1.33484c-0.22559,-0.17086 -0.44801,-0.33771 -0.66742,-0.50056c-13.31468,-13.50939 -26.66306,-26.99693 -40.04514,-40.46228c-3.44789,-0.08343 -6.89621,-0.11123 -10.34499,-0.08343c0,-0.72303 0,-1.44608 0,-2.16911c3.6708,0 7.34161,0 11.01241,0z" fill="#fcfdfb"/>
   </g>
   <g id="svg_11">
    <path id="svg_12" d="m106.92968,8.03602c-0.22242,0 -0.445,0 -0.66742,0c-1.05669,0 -2.11355,0 -3.17024,0c-1.61298,0 -3.2258,0 -4.83879,0c0,-0.72303 0,-1.44608 0,-2.16911c2.89209,0 5.78435,0 8.67645,0c0,0.72303 0,1.44608 0,2.16911z" fill="#fefffe"/>
   </g>
   <g id="svg_13">
    <path id="svg_14" d="m91.7459,12.5411c0.01852,-0.10302 0.07408,-0.18644 0.16685,-0.25028c-0.52843,-0.52838 -1.05669,-1.05674 -1.58512,-1.58512c-0.06391,0.09277 -0.14733,0.14838 -0.25028,0.16685c-0.55496,-2.51095 0.4183,-3.95701 2.91996,-4.33822c2.30927,0.25178 3.3104,1.53099 3.00339,3.83766c-0.75769,1.97803 -2.17595,2.70108 -4.2548,2.16911z" fill="#ffffff"/>
   </g>
   <g id="svg_15">
    <path id="svg_16" d="m103.09202,7.86917c1.05669,0 2.11355,0 3.17024,0c-5.28379,5.33935 -10.56741,10.6787 -15.8512,16.01806c-0.50056,0 -1.00113,0 -1.50169,0c0,0.50056 0,1.00113 0,1.50169c-2.11505,1.94669 -4.06175,3.94895 -5.83992,6.00677c-2.72474,0.51425 -4.69913,2.01594 -5.92334,4.50508c-0.18905,3.57737 -0.32804,7.13705 -0.41714,10.6787c0.02786,-3.00389 0,-6.00727 -0.08343,-9.01016c-2.2804,2.2804 -4.56064,4.56064 -6.84104,6.84104c-0.52843,-0.52843 -1.05669,-1.05669 -1.58512,-1.58512c11.65781,-11.62994 23.28208,-23.28208 34.87264,-34.95607z" fill="#ffffff"/>
   </g>
   <g id="svg_17">
    <path id="svg_18" d="m92.74703,8.87029c1.12427,0.09362 1.40241,0.622 0.83427,1.58512c-1.08456,0.25028 -1.50169,-0.16685 -1.25141,-1.25141c0.16602,-0.09442 0.30501,-0.20567 0.41714,-0.33371z" fill="#000000"/>
   </g>
   <g id="svg_19">
    <path id="svg_20" d="m91.7459,12.70795c-9.89432,9.81089 -19.76645,19.65532 -29.61672,29.53329c-0.52843,-0.52843 -1.05669,-1.05669 -1.58512,-1.58512c9.87797,-9.85027 19.7224,-19.7224 29.53329,-29.61672c0.10295,-0.01847 0.18638,-0.07408 0.25028,-0.16685c0.52843,0.52838 1.05669,1.05674 1.58512,1.58512c-0.09277,0.06384 -0.14833,0.14727 -0.16685,0.25028z" fill="#fdfefd"/>
   </g>
   <g id="svg_21">
    <path id="svg_22" d="m44.69286,40.90641c0.18771,0.27181 0.4103,0.52209 0.66742,0.75085c-0.53093,0.5588 -1.08706,1.08723 -1.66855,1.58512c-0.28632,-0.17503 -0.50874,-0.39745 -0.66742,-0.66742c-9.81089,-9.72747 -19.59959,-19.48847 -29.36644,-29.28301c0.50056,-0.50056 1.00113,-1.00113 1.50169,-1.50169c0.11124,-0.11124 0.22247,-0.11124 0.33371,0c9.71111,9.73898 19.44442,19.44442 29.19958,29.11615z" fill="#f7faf7"/>
   </g>
   <g id="svg_23">
    <path id="svg_24" d="m88.90937,25.38891c0,2.00226 0,4.00451 0,6.00677c-1.95137,-0.20139 -3.89806,-0.20139 -5.83992,0c1.77817,-2.05782 3.72487,-4.06008 5.83992,-6.00677z" fill="#ffffff"/>
   </g>
   <g id="svg_25">
    <path id="svg_26" d="m91.24533,26.39004c2.94782,0 5.89548,0 8.8433,0c0,13.07023 0,26.14063 0,39.21087c-2.22467,0 -4.44952,0 -6.67419,0c-0.24745,-0.26597 -0.49773,-0.54395 -0.75085,-0.83427c-3.28137,1.54558 -6.64633,1.7403 -10.09471,0.58399c-1.84658,-0.62237 -2.98687,-1.87378 -3.42052,-3.75423c-0.16452,-8.29685 -0.10896,-16.58403 0.16685,-24.86136c0.67443,-1.28628 1.70342,-2.14842 3.08681,-2.58625c1.57094,-0.54161 3.18376,-0.70847 4.83879,-0.50056c1.37438,0.16035 2.70922,0.46636 4.00451,0.9177c0,-2.72524 0,-5.45064 0,-8.17588z" fill="#010101"/>
   </g>
   <g id="svg_29">
    <path id="svg_30" d="m127.61967,26.39004c3.00339,0 6.00677,0 9.01016,0c-0.05556,2.72757 0.00017,5.45281 0.16685,8.17588c0.85713,-0.36908 1.74697,-0.61936 2.66968,-0.75085c1.55726,-0.11129 3.11468,-0.11129 4.67193,0c1.62316,0.29667 2.9857,1.04751 4.08794,2.25254c0.11129,0.22242 0.22242,0.445 0.33371,0.66742c0.27498,8.33523 0.33054,16.67797 0.16685,25.02821c-0.53093,1.84091 -1.72678,3.03676 -3.58738,3.58738c-3.39599,1.16098 -6.70523,0.96626 -9.92786,-0.58399c-0.30935,0.25412 -0.55963,0.55996 -0.75085,0.9177c-2.27974,0.08343 -4.55997,0.11129 -6.84104,0.08343c0,-13.12596 0,-26.25176 0,-39.37772z" fill="#010101"/>
   </g>
   <g id="svg_31">
    <path id="svg_32" d="m115.60613,55.08906c2.94782,0 5.89548,0 8.8433,0c0,1.8354 0,3.6708 0,5.50621c-0.31102,2.15092 -1.479,3.62475 -3.50395,4.42165c-2.37534,0.80424 -4.8226,1.16565 -7.34161,1.08456c-3.02958,0.22359 -5.81055,-0.47153 -8.34274,-2.08568c-0.90318,-0.77671 -1.48718,-1.74997 -1.75197,-2.91996c-0.11129,-7.50846 -0.11129,-15.01693 0,-22.52539c0.6242,-1.90348 1.87561,-3.21045 3.75423,-3.92109c4.07843,-1.30347 8.19407,-1.41476 12.34725,-0.33371c2.61295,0.49973 4.25363,2.02929 4.92222,4.58851c0.08343,4.44918 0.11129,8.89853 0.08343,13.34838c-4.06008,0 -8.12032,0 -12.1804,0c-0.02786,2.72591 0,5.45114 0.08343,8.17588c0.71147,0.92037 1.57361,1.05936 2.58625,0.41714c0.20039,-0.15067 0.33955,-0.34522 0.41714,-0.58399c0.08343,-1.72328 0.11113,-3.44739 0.08343,-5.1725z" fill="#020202"/>
   </g>
   <g id="svg_33">
    <path id="svg_34" d="m189.35593,33.89851c2.55788,0 5.11744,0 7.67532,0c0,10.84556 0,21.69112 0,32.53668c-0.02336,1.82089 -0.4405,3.545 -1.25141,5.1725c-0.68911,0.66442 -1.49502,1.13712 -2.41939,1.41827c-1.43161,0.293 -2.87658,0.45985 -4.33822,0.50056c-3.78093,0.08343 -7.56353,0.11129 -11.34612,0.08343c0,-1.50169 0,-3.00339 0,-4.50508c2.66968,0.02786 5.33935,0 8.00903,-0.08343c0.54395,-0.20206 1.01615,-0.50791 1.41827,-0.9177c0.63905,-0.97326 1.27978,-1.94669 1.91883,-2.91996c-1.44329,0.25529 -2.88992,0.53327 -4.33822,0.83427c-2.91328,0.59968 -5.49953,-0.03988 -7.75875,-1.91883c-0.36541,-0.50957 -0.64406,-1.06587 -0.83427,-1.66855c-0.02837,-4.08794 -0.05506,-8.17588 -0.08343,-12.26382c-0.02503,-4.31837 0.0584,-8.62873 0.25028,-12.93124c0.75919,-1.925 2.17745,-3.06512 4.2548,-3.42052c2.64131,-0.37759 5.17083,-0.01602 7.59189,1.08456c0.44217,-0.30368 0.8593,-0.63739 1.25141,-1.00113z" fill="#010101"/>
   </g>
   <g id="svg_35">
    <path id="svg_36" d="m163.99401,33.73165c3.00339,0 6.00677,0 9.01016,0c0,10.62314 0,21.24612 0,31.86926c-3.39216,0 -6.78548,0 -10.17814,0c0.0262,0.22909 -0.00167,0.45168 -0.08343,0.66742c-0.09728,-0.25062 -0.23627,-0.47303 -0.41714,-0.66742c-0.5326,0.22792 -1.08889,0.36691 -1.66855,0.41714c-2.4848,0.42064 -4.82077,0.0312 -7.0079,-1.16798c-0.93088,-0.55446 -1.51487,-1.36087 -1.75197,-2.41939c-0.08343,-9.51055 -0.11129,-19.02127 -0.08343,-28.53216c3.00339,0 6.00677,0 9.01016,0c-0.02786,8.78791 0,17.57548 0.08343,26.36305c0.24628,0.63889 0.71898,0.9726 1.41827,1.00113c0.81325,0.07625 1.34168,-0.25746 1.58512,-1.00113c0.08343,-8.84313 0.11129,-17.68644 0.08343,-26.52991z" fill="#000000"/>
   </g>
   <g id="svg_39">
    <path id="svg_40" d="m88.90937,38.57044c0.87015,-0.13315 1.62099,0.08943 2.25254,0.66742c0.08343,7.23015 0.11129,14.46047 0.08343,21.69112c-0.75452,0.27498 -1.53306,0.3584 -2.33597,0.25028c-0.30584,-0.19472 -0.55613,-0.445 -0.75085,-0.75085c-0.11129,-7.0079 -0.11129,-14.0158 0,-21.0237c0.17103,-0.36491 0.42131,-0.64306 0.75085,-0.83427z" fill="#fbfbfb"/>
   </g>
   <g id="svg_41">
    <path id="svg_42" d="m113.10331,38.57044c1.00447,-0.21357 1.81087,0.06457 2.41939,0.83427c0.08343,2.66918 0.11129,5.33885 0.08343,8.00903c-1.05669,0 -2.11355,0 -3.17024,0c-0.02786,-2.72591 0,-5.45114 0.08343,-8.17588c0.22959,-0.20106 0.42414,-0.42348 0.58399,-0.66742z" fill="#fafafa"/>
   </g>
   <g id="svg_43">
    <path id="svg_44" d="m137.29725,38.57044c0.68494,-0.04438 1.35236,0.03904 2.00226,0.25028c0.11863,0.2094 0.25762,0.40396 0.41714,0.58399c0.11129,6.95234 0.11129,13.90451 0,20.85684c-0.63505,0.98211 -1.49702,1.23239 -2.58625,0.75085c-0.20039,-0.15067 -0.33955,-0.34522 -0.41714,-0.58399c-0.11129,-7.06346 -0.11129,-14.12709 0,-21.19055c0.22959,-0.20106 0.42414,-0.42348 0.58399,-0.66742z" fill="#f9f9f9"/>
   </g>
   <g id="svg_45">
    <path id="svg_46" d="m185.85198,38.57044c0.87932,-0.15501 1.63017,0.06741 2.25254,0.66742c0.11179,7.17475 0.11179,14.34951 0,21.52426c-0.62404,0.62721 -1.37488,0.82193 -2.25254,0.58399c-0.31369,-0.25746 -0.56397,-0.5633 -0.75085,-0.9177c-0.11179,-6.95234 -0.11179,-13.90451 0,-20.85684c0.13348,-0.4415 0.38377,-0.77521 0.75085,-1.00113z" fill="#f9f9f9"/>
   </g>
   <g id="svg_47">
    <path id="svg_48" d="m43.02431,42.4081c0.15868,0.26997 0.3811,0.49239 0.66742,0.66742c0.58149,-0.49789 1.13762,-1.02632 1.66855,-1.58512c-0.25712,-0.22876 -0.47971,-0.47904 -0.66742,-0.75085c2.45911,-0.63538 3.90524,0.28232 4.33822,2.7531c-0.19939,2.35332 -1.47867,3.41018 -3.83766,3.17024c-1.97806,-0.75769 -2.70104,-2.17595 -2.16911,-4.2548z" fill="#ffffff"/>
   </g>
   <g id="svg_49">
    <path id="svg_50" d="m45.52713,42.90866c0.89017,-0.08259 1.30731,0.30668 1.25141,1.16798c-0.45151,0.58032 -0.95207,0.63588 -1.50169,0.16685c-0.14867,-0.50023 -0.06524,-0.94507 0.25028,-1.33484z" fill="#000000"/>
   </g>
   <g id="svg_51">
    <path id="svg_52" d="m59.54293,48.41487c0.21941,0.16285 0.44183,0.3297 0.66742,0.50056c0.49789,-0.41447 0.97076,-0.8593 1.41827,-1.33484c-0.00968,-0.32286 -0.14867,-0.60101 -0.41714,-0.83427c2.50349,-0.77521 4.00518,0.11463 4.50508,2.66968c-0.46319,2.90194 -2.07617,3.81964 -4.83879,2.7531c-1.18684,-0.97343 -1.63167,-2.22484 -1.33484,-3.75423z" fill="#ffffff"/>
   </g>
   <g id="svg_53">
    <path id="svg_54" d="m53.36931,47.5806c0.49456,0.4108 0.96726,0.8558 1.41827,1.33484c0.11129,0.16685 0.11129,0.33371 0,0.50056c-14.9335,14.71108 -29.867,29.422 -44.8005,44.13308c-0.60303,-0.2633 -1.13139,-0.68043 -1.58512,-1.25141c-0.11124,-0.11129 -0.11124,-0.22242 0,-0.33371c15.0226,-14.77232 30.01166,-29.56683 44.96736,-44.38336z" fill="#fbfcfa"/>
   </g>
   <g id="svg_55">
    <path id="svg_56" d="m62.21261,48.91543c1.08272,-0.0574 1.41643,0.41547 1.00113,1.41827c-0.96042,0.42865 -1.43312,0.12281 -1.41827,-0.9177c0.11646,-0.19872 0.25545,-0.36558 0.41714,-0.50056z" fill="#000000"/>
   </g>
   <g id="svg_57">
    <path id="svg_58" d="m34.68157,79.95042c-0.23326,0.26847 -0.51141,0.40746 -0.83427,0.41714c-0.46486,-0.51291 -0.90969,-1.04134 -1.33484,-1.58512c0.21191,-0.13148 0.37876,-0.29834 0.50056,-0.50056c8.08662,-7.8919 16.15121,-15.8175 24.19394,-23.7768c0.42214,-0.23727 0.86714,-0.29283 1.33484,-0.16685c12.73652,12.6254 25.47321,25.25063 38.20974,37.87603c0.77671,0.08326 1.55525,0.11113 2.33597,0.08343c0,0.72298 0,1.44613 0,2.16911c-1.11376,0.0277 -2.22618,0 -3.3371,-0.08343c-0.45101,-0.5069 -0.95157,-0.95191 -1.50169,-1.33484c-11.99702,-12.10832 -24.09399,-24.09416 -36.29091,-35.9572c-7.84101,7.53516 -15.59975,15.15475 -23.27624,22.8591z" fill="#fbfcfa"/>
   </g>
   <g id="svg_61">
    <path id="svg_62" d="m76.89583,62.09696c0.81192,2.64765 2.53619,4.42732 5.1725,5.33935c1.85526,2.10804 3.85751,4.19373 6.00677,6.25705c-0.52843,0.52843 -1.05669,1.05669 -1.58512,1.58512c-6.0902,-6.0902 -12.1804,-12.1804 -18.2706,-18.2706c0.52843,-0.52843 1.05669,-1.05669 1.58512,-1.58512c2.33597,2.33597 4.67193,4.67193 7.0079,7.0079c0.07742,-0.09911 0.10529,-0.2104 0.08343,-0.33371z" fill="#ffffff"/>
   </g>
   <g id="svg_63">
    <path id="svg_64" d="m104.26001,88.79372c0.07559,0.15985 0.18671,0.299 0.33371,0.41714c-0.52843,0.52843 -1.05669,1.05669 -1.58512,1.58512c-0.11813,-0.147 -0.25729,-0.25812 -0.41714,-0.33371c-4.02654,-4.10997 -8.08662,-8.19791 -12.1804,-12.26382c0.52843,-0.52843 1.05669,-1.05669 1.58512,-1.58512c4.06592,4.09378 8.15386,8.15386 12.26382,12.1804z" fill="#fdfdfd"/>
   </g>
   <g id="svg_65">
    <path id="svg_66" d="m33.01303,78.28187c-0.1218,0.20223 -0.28866,0.36908 -0.50056,0.50056c0.42515,0.54378 0.86998,1.07221 1.33484,1.58512c0.32286,-0.00968 0.60101,-0.14867 0.83427,-0.41714c0.48488,2.47913 -0.51625,3.92526 -3.00339,4.33822c-2.21783,-0.31886 -3.24683,-1.59797 -3.08681,-3.83766c0.79623,-2.13624 2.27023,-2.85939 4.42165,-2.16911z" fill="#ffffff"/>
   </g>
   <g id="svg_67">
    <path id="svg_68" d="m31.17762,80.28413c1.28795,-0.10512 1.62166,0.39545 1.00113,1.50169c-1.24557,0.14199 -1.57928,-0.35857 -1.00113,-1.50169z" fill="#000000"/>
   </g>
   <g id="svg_69">
    <path id="svg_70" d="m26.50569,84.62235c0.70112,0.50323 1.22955,1.11509 1.58512,1.8354c-2.33113,2.16427 -4.61153,4.38895 -6.84104,6.67419c-0.50056,-0.50056 -1.00113,-1.00113 -1.50169,-1.50169c-0.11129,-0.11129 -0.11129,-0.22242 0,-0.33371c2.33697,-2.14225 4.58951,-4.36709 6.75762,-6.67419z" fill="#fafcfa"/>
   </g>
   <g id="svg_71">
    <path id="svg_72" d="m102.59146,90.46227c0.15985,0.07559 0.299,0.18671 0.41714,0.33371c0.52843,-0.52843 1.05669,-1.05669 1.58512,-1.58512c-0.147,-0.11813 -0.25812,-0.25729 -0.33371,-0.41714c3.14788,-0.60552 4.56615,0.67359 4.2548,3.83766c-0.84245,1.88079 -2.26072,2.52034 -4.2548,1.91883c-1.55175,-0.96158 -2.10788,-2.32412 -1.66855,-4.08794z" fill="#ffffff"/>
   </g>
   <g id="svg_73">
    <path id="svg_74" d="m105.26113,90.79598c1.12427,0.09361 1.40241,0.62203 0.83427,1.58512c-1.08456,0.25028 -1.50169,-0.16685 -1.25141,-1.25141c0.16602,-0.09444 0.30501,-0.20573 0.41714,-0.33371z" fill="#000000"/>
   </g>
  </g>
 </g>
</svg>